<?xml version="1.0" encoding="UTF-8"?>
<svg width="20px" height="20px" viewBox="0 0 20 20" version="1.1" xmlns="http://www.w3.org/2000/svg" xmlns:xlink="http://www.w3.org/1999/xlink">
    <!-- Generator: Sketch 53.2 (72643) - https://sketchapp.com -->
    <title>RecaptchaLogo</title>
    <desc>Created with Sketch.</desc>
    <g id="Design" stroke="none" stroke-width="1" fill="none" fill-rule="evenodd">
        <g id="Billing-Profiles" transform="translate(-60.000000, -789.000000)" fill-rule="nonzero">
            <g transform="translate(30.000000, 20.000000)" id="Sidebar">
                <g transform="translate(1.000000, 1.000000)">
                    <g id="RecaptchaLogo" transform="translate(29.000000, 768.000000)">
                        <path d="M20,10.015 C19.9995238,9.87159048 19.9962143,9.72895238 19.9897857,9.587 L19.9897857,1.49390476 L17.752381,3.73130952 C15.9211905,1.48985714 13.1354762,0.0582142857 10.0152381,0.0582142857 C6.76809524,0.0582142857 3.88333333,1.60814286 2.0597619,4.00845238 L5.72714286,7.71440476 C6.08654762,7.04971429 6.59711905,6.47880952 7.2127381,6.04761905 C7.853,5.54797619 8.76019048,5.13945238 10.015119,5.13945238 C10.1667238,5.13945238 10.2837381,5.15716667 10.3697143,5.19054286 C11.9245714,5.31326429 13.2723333,6.17135238 14.0659048,7.41680476 L11.4699524,10.0127571 C14.7580476,9.99985238 18.4725714,9.99228095 19.9997143,10.0144238" id="Path" fill="#B29EDA"></path>
                        <path d="M9.95690476,0.0585714286 C9.81349524,0.059047619 9.67085714,0.0623571429 9.52890476,0.0687857143 L1.43580952,0.0687857143 L3.67321429,2.30619048 C1.4317619,4.13738095 0.000119047619,6.92309524 0.000119047619,10.0433333 C0.000119047619,13.2904762 1.55007143,16.1752381 3.95035714,17.9988095 L7.65630952,14.3314286 C6.99161905,13.9720238 6.42071429,13.4614524 5.98952381,12.8458333 C5.48990476,12.2055714 5.08135714,11.298381 5.08135714,10.0434524 C5.08135714,9.89184762 5.09907143,9.77483333 5.13244762,9.68885714 C5.25516905,8.134 6.11325714,6.7862381 7.35870952,5.99266667 L9.9546619,8.58861905 C9.94175714,5.30052381 9.9341619,1.586 9.95632857,0.0588571429" id="Path" fill="#D8CEEC"></path>
                        <path d="M0.000476190476,10.0430952 C0.000952380952,10.1865048 0.00426190476,10.3291429 0.0106904762,10.4710952 L0.0106904762,18.5641905 L2.24809524,16.3267857 C4.07928571,18.5682381 6.865,19.999881 9.9852381,19.999881 C13.232381,19.999881 16.1171429,18.4499524 17.9407143,16.0496429 L14.2733333,12.3436905 C13.9139286,13.008381 13.4033571,13.5792857 12.7877381,14.0104762 C12.1474762,14.510119 11.2402857,14.9186429 9.98535714,14.9186429 C9.83375238,14.9186429 9.7167381,14.9009286 9.6307619,14.8675524 C8.07590476,14.744831 6.72814286,13.8867429 5.93457143,12.6412905 L8.53052381,10.0453381 C5.24242857,10.0582429 1.52790476,10.0658143 0.000761904762,10.0436714" id="Path" fill="#FFFFFF"></path>
                    </g>
                </g>
            </g>
        </g>
    </g>
</svg>