<?xml version="1.0" encoding="UTF-8"?>
<svg width="35px" height="36px" viewBox="0 0 35 36" version="1.1" xmlns="http://www.w3.org/2000/svg" xmlns:xlink="http://www.w3.org/1999/xlink">
    <!-- Generator: Sketch 53.2 (72643) - https://sketchapp.com -->
    <title>g840</title>
    <desc>Created with Sketch.</desc>
    <g id="Design" stroke="none" stroke-width="1" fill="none" fill-rule="evenodd">
        <g id="Capcha-Solver" transform="translate(-224.000000, -480.000000)">
            <g id="Splash-Screen/Loading" transform="translate(31.000000, 21.000000)">
                <g id="Blank" transform="translate(9.000000, 34.000000)">
                    <g id="Group" transform="translate(124.000000, 425.000000)">
                        <g id="g840" transform="translate(60.000000, 0.000000)">
                            <path d="M34.91766,17.837012 C34.916848,17.58845 34.91106,17.341225 34.89995,17.095186 L34.89995,3.067929 L31.021997,6.945883 C27.848108,3.060914 23.019803,0.579536 17.611689,0.579536 C11.983618,0.579536 6.983641,3.26593 3.822958,7.426237 L10.179402,13.849534 C10.802334,12.697468 11.687276,11.707954 12.754289,10.960597 C13.864017,10.094599 15.436394,9.38653 17.611482,9.38653 C17.874249,9.38653 18.077064,9.41723 18.226081,9.47508 C20.921018,9.687786 23.257008,11.175055 24.632457,13.333721 L20.133055,17.833124 C25.832106,17.810754 32.270258,17.797634 34.91716,17.836024" id="path3645" fill="#75717B"></path>
                            <path d="M17.510589,0.580155 C17.262026,0.580968 17.0148,0.586755 16.768763,0.597865 L2.741505,0.597865 L6.61946,4.47582 C2.73449,7.649708 0.2531127,12.478012 0.2531127,17.886127 C0.2531127,23.514198 2.939549,28.514175 7.099814,31.674857 L13.52311,25.318406 C12.371044,24.695474 11.38153,23.810531 10.634175,22.743518 C9.768216,21.63379 9.060106,20.061415 9.060106,17.886325 C9.060106,17.623558 9.090806,17.420745 9.148656,17.271728 C9.361361,14.576791 10.848632,12.240798 13.007296,10.86535 L17.5067,15.364753 C17.48433,9.665703 17.47117,3.22755 17.5096,0.580647" id="path3647" fill="#9C99A1"></path>
                            <path d="M0.2537317,17.885708 C0.2545645,18.134271 0.2602917,18.381496 0.2714347,18.627534 L0.2714347,32.654791 L4.149389,28.776837 C7.323278,32.661806 12.151582,35.143184 17.559697,35.143184 C23.187767,35.143184 28.187744,32.456789 31.348428,28.296483 L24.991985,21.873185 C24.36905,23.025254 23.48411,24.014766 22.417095,24.762122 C21.307369,25.628123 19.734992,26.336191 17.559903,26.336191 C17.297135,26.336191 17.094323,26.305491 16.945306,26.247641 C14.250369,26.034936 11.914376,24.547665 10.53893,22.388999 L15.038331,17.889598 C9.339281,17.911968 2.901128,17.925088 0.2542267,17.886698" id="path3649" fill="#D7D6D8"></path>
                        </g>
                    </g>
                </g>
            </g>
        </g>
    </g>
</svg>