<?xml version="1.0" encoding="UTF-8"?>
<svg width="36px" height="36px" viewBox="0 0 36 36" version="1.1" xmlns="http://www.w3.org/2000/svg" xmlns:xlink="http://www.w3.org/1999/xlink">
    <!-- Generator: Sketch 53.2 (72643) - https://sketchapp.com -->
    <title>Search Button</title>
    <desc>Created with Sketch.</desc>
    <g id="Design" stroke="none" stroke-width="1" fill="none" fill-rule="evenodd">
        <g id="Dashboard---Keys-+-Statistics" transform="translate(-1189.000000, -197.000000)" fill="#FFFFFF">
            <g id="Group-2" transform="translate(216.000000, 197.000000)">
                <g id="Group">
                    <g id="Search-Button" transform="translate(973.000000, 0.000000)">
                        <circle id="Button" stroke-opacity="0.1" stroke="#FFFFFF" fill-opacity="0.1" cx="18" cy="18" r="17.5"></circle>
                        <path d="M21.4222222,10.7555556 L22.7111111,12.0444444 L20.7733333,13.9644444 C20.4266667,14.3111111 20.4266667,14.88 20.7733333,15.2266667 C21.12,15.5733333 21.6888889,15.5733333 22.0355556,15.2266667 L23.9555556,13.2888889 L25.2444444,14.5777778 C25.52,14.8533333 26,14.6577778 26,14.2577778 L26,10.4444444 C26,10.1955556 25.8044444,10 25.5555556,10 L21.7422222,10 C21.3422222,10 21.1466667,10.48 21.4222222,10.7555556 L21.4222222,10.7555556 Z M10.7555556,14.5777778 L12.0444444,13.2888889 L13.9644444,15.2266667 C14.3111111,15.5733333 14.88,15.5733333 15.2266667,15.2266667 C15.5733333,14.88 15.5733333,14.3111111 15.2266667,13.9644444 L13.2888889,12.0444444 L14.5777778,10.7555556 C14.8533333,10.48 14.6577778,10 14.2577778,10 L10.4444444,10 C10.1955556,10 10,10.1955556 10,10.4444444 L10,14.2577778 C10,14.6577778 10.48,14.8533333 10.7555556,14.5777778 L10.7555556,14.5777778 Z M14.5777778,25.2444444 L13.2888889,23.9555556 L15.2266667,22.0355556 C15.5733333,21.6888889 15.5733333,21.12 15.2266667,20.7733333 C14.88,20.4266667 14.3111111,20.4266667 13.9644444,20.7733333 L12.0444444,22.7111111 L10.7555556,21.4222222 C10.48,21.1466667 10,21.3422222 10,21.7422222 L10,25.5555556 C10,25.8044444 10.1955556,26 10.4444444,26 L14.2577778,26 C14.6577778,26 14.8533333,25.52 14.5777778,25.2444444 Z M25.2444444,21.4222222 L23.9555556,22.7111111 L22.0355556,20.7733333 C21.6888889,20.4266667 21.12,20.4266667 20.7733333,20.7733333 C20.4266667,21.12 20.4266667,21.6888889 20.7733333,22.0355556 L22.7111111,23.9555556 L21.4222222,25.2444444 C21.1466667,25.52 21.3422222,26 21.7422222,26 L25.5555556,26 C25.8044444,26 26,25.8044444 26,25.5555556 L26,21.7422222 C26,21.3422222 25.52,21.1466667 25.2444444,21.4222222 L25.2444444,21.4222222 Z" id="Shape" fill-opacity="0.8" fill-rule="nonzero"></path>
                    </g>
                </g>
            </g>
        </g>
    </g>
</svg>