<?xml version="1.0" encoding="UTF-8"?>
<svg width="22px" height="17px" viewBox="0 0 22 17" version="1.1" xmlns="http://www.w3.org/2000/svg" xmlns:xlink="http://www.w3.org/1999/xlink">
    <!-- Generator: Sketch 53 (72520) - https://sketchapp.com -->
    <title>Shape</title>
    <desc>Created with Sketch.</desc>
    <g id="Design" stroke="none" stroke-width="1" fill="none" fill-rule="evenodd">
        <g id="Dashboard" transform="translate(-1017.000000, -675.000000)" fill="#8CC7F7" fill-rule="nonzero">
            <g transform="translate(30.000000, 20.000000)" id="Dashboard-Content">
                <g transform="translate(80.000000, 1.000000)">
                    <g id="Group" transform="translate(70.000000, 175.000000)">
                        <g id="Analytics" transform="translate(0.000000, 442.000000)">
                            <g id="3x">
                                <g id="Proxy-Usage" transform="translate(686.000000, 0.000000)">
                                    <g id="Group-4" transform="translate(55.000000, 25.000000)">
                                        <g id="Oval-2" transform="translate(87.000000, 0.000000)">
                                            <path d="M24.1426832,12.568459 C23.9621291,12.568459 23.8028167,12.6640464 23.7072293,12.812738 L23.6328835,12.9720504 L18.1312954,25.3453132 C17.9613622,25.6533172 17.8551539,25.9931836 17.8551539,26.3649125 C17.8551539,27.5438243 18.8110283,28.4996986 19.98994,28.4996986 C21.0095394,28.4996986 21.8698263,27.7774824 22.071622,26.8109872 L22.0822428,26.7791248 L24.6737245,13.0995003 C24.6737245,12.8021172 24.4400663,12.568459 24.1426832,12.568459 L24.1426832,12.568459 Z M9.44345939,17.9425972 C9.98512154,18.4842593 10.8560293,18.5267426 11.4507956,18.0381846 C14.3821437,15.6378778 18.0781913,14.6607618 21.6255473,15.1068365 L22.8894256,12.260455 C18.2693662,11.4320306 13.3731652,12.5790798 9.53904683,15.7122236 C8.85931394,16.2751274 8.81683063,17.3159684 9.44345939,17.9425972 Z M30.5576623,17.9425972 C31.1842911,17.3159684 31.1418078,16.2751274 30.4514541,15.7122236 C29.0070217,14.5333119 27.4138977,13.6411625 25.7358071,13.0251545 L25.1729033,16.0202276 C26.3730567,16.5194064 27.4988643,17.1778977 28.5397053,18.0275638 C29.1557132,18.5161218 30.0160002,18.4842593 30.5576623,17.9425972 L30.5576623,17.9425972 Z M26.2774693,22.2227902 C26.9147189,21.5855406 26.8722356,20.4915955 26.1287777,19.971175 C25.6402197,19.6206877 25.13042,19.3233046 24.5993787,19.0577839 L24.0152332,22.1590653 C24.1320623,22.233411 24.2488914,22.3077568 24.3550997,22.3927234 C24.9604868,22.8175565 25.7676696,22.7325899 26.2774693,22.2227902 L26.2774693,22.2227902 Z M13.7130316,22.2121694 C14.2440729,22.7432107 15.0618766,22.785694 15.6778845,22.3502401 C16.6762422,21.6492656 17.8126706,21.2244325 18.9703407,21.0544993 L20.3298065,17.9957013 C18.0675705,17.9319763 15.7840928,18.5692259 13.8617232,19.9499334 C13.1288862,20.4915955 13.075782,21.5749198 13.7130316,22.2121694 Z" id="Shape"></path>
                                        </g>
                                    </g>
                                </g>
                            </g>
                        </g>
                    </g>
                </g>
            </g>
        </g>
    </g>
</svg>