<?xml version="1.0" encoding="UTF-8"?>
<svg width="36px" height="36px" viewBox="0 0 36 36" version="1.1" xmlns="http://www.w3.org/2000/svg" xmlns:xlink="http://www.w3.org/1999/xlink">
    <!-- Generator: Sketch 53.2 (72643) - https://sketchapp.com -->
    <title>Search Button</title>
    <desc>Created with Sketch.</desc>
    <g id="Design" stroke="none" stroke-width="1" fill="none" fill-rule="evenodd">
        <g id="Dashboard---Keys-+-Statistics" transform="translate(-1143.000000, -197.000000)" fill="#FFFFFF">
            <g id="Group-2" transform="translate(216.000000, 197.000000)">
                <g id="Group">
                    <g id="Search-Button" transform="translate(927.000000, 0.000000)">
                        <circle id="Button" stroke-opacity="0.1" stroke="#FFFFFF" fill-opacity="0.1" cx="18" cy="18" r="17.5"></circle>
                        <path d="M21.7320821,20.3243027 L20.9906516,20.3243027 L20.7278662,20.0709024 C21.8540897,18.756975 22.4359718,16.9644026 22.1168752,15.0592078 C21.6757709,12.4501233 19.4984055,10.3666098 16.8705506,10.0475131 C12.9006127,9.55948292 9.55948292,12.9006127 10.0475131,16.8705506 C10.3666098,19.4984055 12.4501233,21.6757709 15.0592078,22.1168752 C16.9644026,22.4359718 18.756975,21.8540897 20.0709024,20.7278662 L20.3243027,20.9906516 L20.3243027,21.7320821 L24.313011,25.7207904 C24.6978041,26.1055835 25.3266122,26.1055835 25.7114052,25.7207904 C26.0961983,25.3359974 26.0961983,24.7071893 25.7114052,24.3223962 L21.7320821,20.3243027 Z M16.1009645,20.3243027 C13.7640507,20.3243027 11.8776263,18.4378783 11.8776263,16.1009645 C11.8776263,13.7640507 13.7640507,11.8776263 16.1009645,11.8776263 C18.4378783,11.8776263 20.3243027,13.7640507 20.3243027,16.1009645 C20.3243027,18.4378783 18.4378783,20.3243027 16.1009645,20.3243027 Z" id="Shape" fill-opacity="0.8" fill-rule="nonzero"></path>
                    </g>
                </g>
            </g>
        </g>
    </g>
</svg>