<?xml version="1.0" encoding="UTF-8"?>
<svg width="22px" height="22px" viewBox="0 0 22 22" version="1.1" xmlns="http://www.w3.org/2000/svg" xmlns:xlink="http://www.w3.org/1999/xlink">
    <!-- Generator: Sketch 53 (72520) - https://sketchapp.com -->
    <title>Shape</title>
    <desc>Created with Sketch.</desc>
    <g id="Design" stroke="none" stroke-width="1" fill="none" fill-rule="evenodd">
        <g id="Dashboard" transform="translate(-674.000000, -672.000000)" fill="#00FF2A" fill-rule="nonzero">
            <g transform="translate(30.000000, 20.000000)" id="Dashboard-Content">
                <g transform="translate(80.000000, 1.000000)">
                    <g id="Group" transform="translate(70.000000, 175.000000)">
                        <g id="Analytics" transform="translate(0.000000, 442.000000)">
                            <g id="3x">
                                <g id="Spent" transform="translate(343.000000, 0.000000)">
                                    <g id="Group-4" transform="translate(55.000000, 25.000000)">
                                        <g id="Oval-2" transform="translate(87.000000, 0.000000)">
                                            <path d="M30.7194511,21.2225806 L30.3785775,20.7681819 C30.010434,20.2692344 30.0013441,19.5965461 30.3649426,19.0975986 L30.6967262,18.638745 C31.2057641,17.9348726 30.9694251,16.954797 30.1922333,16.5494021 L29.6831954,16.2821087 C29.1287077,15.992541 28.8287389,15.3866761 28.9332735,14.7808112 L29.0287181,14.22395 C29.1741575,13.3730663 28.5287701,12.5890058 27.6470437,12.5533667 L27.0743761,12.5310922 C26.4471687,12.5043629 25.9063159,12.0900582 25.7336066,11.497558 L25.5745322,10.9540616 C25.3291032,10.1254522 24.401927,9.69778286 23.5929204,10.0363544 L23.0657025,10.2590989 C22.4884899,10.5041178 21.8203776,10.3571064 21.3976944,9.89825287 L21.0159159,9.4794933 C20.4250683,8.8335344 19.3979026,8.84244418 18.8206899,9.49285797 L18.4434565,9.91607242 C18.0298632,10.3793809 17.3617509,10.535302 16.7845383,10.2991929 L16.2527755,10.0853582 C15.4392238,9.75569642 14.5165926,10.2011853 14.2847985,11.0342496 L14.1348141,11.577746 C13.9711948,12.1702462 13.434887,12.5934607 12.8076796,12.6290998 L12.2350119,12.660284 C11.3578305,12.7092878 10.7215331,13.502258 10.8806075,14.3486869 L10.9851421,14.9010932 C11.0987666,15.5069581 10.8033428,16.112823 10.257945,16.4113005 L9.7534521,16.6830488 C8.98535025,17.1018083 8.76264617,18.0863388 9.28077404,18.7813015 L9.62164764,19.2357001 C9.98979113,19.7346477 9.9988811,20.4073359 9.63528259,20.9062835 L9.30349895,21.3651371 C8.79446104,22.0690095 9.03080007,23.0490851 9.80799188,23.45448 L10.3170298,23.7217733 C10.8715175,24.0113411 11.1714863,24.617206 11.0669517,25.2230709 L10.9715071,25.779932 C10.8260677,26.6308158 11.4714551,27.4148763 12.3531814,27.4505154 L12.9258491,27.4727898 C13.5530565,27.4995192 14.0939093,27.9138238 14.2666186,28.5063241 L14.4256929,29.0498205 C14.6711219,29.8784299 15.5982981,30.3060992 16.4073048,29.9675276 L16.9345227,29.7447832 C17.5117353,29.4997643 18.1798476,29.6467756 18.6025308,30.1056292 L18.9843093,30.5243888 C19.5706118,31.1658928 20.5977776,31.156983 21.1749903,30.5065692 L21.5522237,30.0833548 C21.965817,29.6200463 22.6339293,29.4641252 23.2111419,29.7002343 L23.7429047,29.914069 C24.5564564,30.2437308 25.4790876,29.7982419 25.7108817,28.9651776 L25.8608661,28.4216812 C26.0244854,27.8291809 26.5607932,27.4059665 27.1880006,27.3703274 L27.7606683,27.3391432 C28.6378497,27.2901394 29.2741471,26.4971691 29.1150727,25.6507402 L29.0105381,25.098334 C28.8969136,24.4924691 29.1923374,23.8866042 29.7377352,23.5881266 L30.2422281,23.3163784 C31.0148749,22.9020737 31.237579,21.9175433 30.7194511,21.2225806 Z M22.706649,23.65495 C22.2930557,24.1449878 21.7567479,24.4746495 21.1340854,24.6439353 C20.8613866,24.7152136 20.7386721,24.85777 20.752307,25.1339731 C20.7659419,25.4057213 20.752307,25.6819245 20.752307,25.9536727 C20.752307,26.1986916 20.6250475,26.3278834 20.3796185,26.3323382 C20.0796498,26.341248 19.779681,26.341248 19.4797122,26.3323382 C19.2161033,26.3278834 19.0933888,26.180872 19.0888438,25.9313982 C19.0842988,25.7309282 19.0842988,25.5304582 19.0842988,25.3344431 C19.0797539,24.8934091 19.0661189,24.8755896 18.6343457,24.8087662 C18.079858,24.7241233 17.5390052,24.5993864 17.0345122,24.3588224 C16.6390989,24.1717171 16.598194,24.0737095 16.7118186,23.6638598 C16.7981732,23.3609273 16.8799829,23.05354 16.9799725,22.7550624 C17.093597,22.4075811 17.1890416,22.3630322 17.5162803,22.5278631 C18.075313,22.812976 18.6707055,22.973352 19.293368,23.0490851 C19.6933263,23.0980889 20.0887397,23.0579949 20.4614282,22.8976189 C21.1568103,22.5991413 21.2658899,21.8106259 20.6795873,21.3384077 C20.4796081,21.1780317 20.2523591,21.0577497 20.01602,20.9552873 C19.4069925,20.6924488 18.7706951,20.4919788 18.1980275,20.1534073 C17.2663063,19.6054559 16.6754587,18.8570346 16.7436334,17.7433123 C16.8208981,16.4870336 17.5480951,15.7029732 18.7207003,15.2842136 C19.2070133,15.110473 19.2070133,15.1193827 19.2115583,14.6204352 C19.2115583,14.4511494 19.2115583,14.2863185 19.2115583,14.1170327 C19.2206483,13.742822 19.284278,13.6759987 19.6660565,13.6670889 C19.784226,13.662634 19.9023955,13.6670889 20.020565,13.6670889 C20.8295717,13.6670889 20.8295717,13.6670889 20.8341167,14.4600592 C20.8386616,15.0213752 20.8341167,15.0258301 21.4067843,15.110473 C21.8431025,15.1772963 22.2612408,15.3064881 22.6657442,15.4802287 C22.8884482,15.5782363 22.9748029,15.7297025 22.9066282,15.9613567 C22.8066386,16.3043832 22.711194,16.6518645 22.5975694,16.9904361 C22.4930349,17.3111881 22.3885003,17.3601919 22.0703516,17.2087257 C21.4385992,16.9102481 20.7750319,16.7855112 20.0751048,16.8211503 C19.8933055,16.8300601 19.7115063,16.8567894 19.543342,16.9280676 C18.9388594,17.1864512 18.8388698,17.8413199 19.3569977,18.2422599 C19.6160617,18.4471848 19.9160304,18.5941961 20.2250892,18.718933 C20.761397,18.9372226 21.2977048,19.1421475 21.8067427,19.4183506 C23.4111211,20.3048735 23.8474393,22.2962088 22.706649,23.65495 Z" id="Shape"></path>
                                        </g>
                                    </g>
                                </g>
                            </g>
                        </g>
                    </g>
                </g>
            </g>
        </g>
    </g>
</svg>