<?xml version="1.0" encoding="UTF-8"?>
<svg width="90px" height="20px" viewBox="0 0 90 20" version="1.1" xmlns="http://www.w3.org/2000/svg" xmlns:xlink="http://www.w3.org/1999/xlink">
    <!-- Generator: Sketch 53.2 (72643) - https://sketchapp.com -->
    <title>YouTube_light_logo_(2017)</title>
    <desc>Created with Sketch.</desc>
    <g id="Design" stroke="none" stroke-width="1" fill="none" fill-rule="evenodd">
        <g id="Capcha-Solver" transform="translate(-195.000000, -177.000000)" fill="#FFFFFF">
            <g id="Splash-Screen/Loading" transform="translate(31.000000, 21.000000)">
                <g id="Blank" transform="translate(9.000000, 34.000000)">
                    <g id="Open-YouTube-Button" transform="translate(0.000000, 110.000000)">
                        <g id="YouTube_light_logo_(2017)" transform="translate(155.000000, 12.000000)">
                            <g id="g5" fill-rule="nonzero">
                                <path d="M14.2821692,-1.3480328e-11 C14.2821692,-1.3480328e-11 5.34099271,-1.3480328e-11 3.10569859,0.588235294 C1.90569852,0.917647059 0.917647059,1.90606616 0.588235294,3.12959553 C0,5.36488965 0,10 0,10 C0,10 0,14.6586398 0.588235294,16.8704045 C0.917647059,18.0939339 1.88216913,19.0589155 3.10569859,19.3883273 C5.36452212,20.000092 14.2821692,20 14.2821692,20 C14.2821692,20 23.2233456,20 25.45864,19.4117647 C26.6821694,19.0823529 27.6471506,18.1178308 27.9765624,16.8943014 C28.5647976,14.6590073 28.5647976,10.0234374 28.5647976,10.0234374 C28.5647976,10.0234374 28.5883271,5.36488965 27.9765624,3.12959553 C27.6471506,1.90606619 26.6821694,0.941084565 25.45864,0.6116728 C23.2233456,-9.19117782e-05 14.2821692,-1.3480328e-11 14.2821692,-1.3480328e-11 Z M11.4352021,5.71783082 L18.8704045,10 L11.4352021,14.2821692 L11.4352021,5.71783082 Z" id="path7"></path>
                            </g>
                            <g id="g11" transform="translate(31.294118, 0.705882)">
                                <g id="g13">
                                    <path d="M10.1882353,17.5058824 C9.62352941,17.1294118 9.22352941,16.5411765 8.98823529,15.7176471 C8.75294118,14.9176471 8.63529412,13.8352941 8.63529412,12.5176471 L8.63529412,10.7058824 C8.63529412,9.36470588 8.77647059,8.28235294 9.03529412,7.45882353 C9.31764706,6.63529412 9.74117647,6.04705882 10.3058824,5.67058824 C10.8941176,5.29411765 11.6470588,5.10588235 12.5882353,5.10588235 C13.5058824,5.10588235 14.2588235,5.29411765 14.8235294,5.67058824 C15.3882353,6.04705882 15.7882353,6.65882353 16.0470588,7.45882353 C16.3058824,8.25882353 16.4470588,9.34117647 16.4470588,10.7058824 L16.4470588,12.5176471 C16.4470588,13.8588235 16.3294118,14.9176471 16.0705882,15.7411765 C15.8117647,16.5411765 15.4117647,17.1529412 14.8470588,17.5294118 C14.2823529,17.9058824 13.5058824,18.0941176 12.5411765,18.0941176 C11.5529412,18.0705882 10.7529412,17.8823529 10.1882353,17.5058824 Z M13.3647059,15.5294118 C13.5294118,15.1294118 13.6,14.4470588 13.6,13.5294118 L13.6,9.62352941 C13.6,8.72941176 13.5294118,8.07058824 13.3647059,7.64705882 C13.2,7.22352941 12.9411765,7.03529412 12.5411765,7.03529412 C12.1647059,7.03529412 11.8823529,7.24705882 11.7411765,7.64705882 C11.5764706,8.07058824 11.5058824,8.72941176 11.5058824,9.62352941 L11.5058824,13.5294118 C11.5058824,14.4470588 11.5764706,15.1294118 11.7411765,15.5294118 C11.8823529,15.9294118 12.1647059,16.1411765 12.5647059,16.1411765 C12.9411765,16.1411765 13.2,15.9529412 13.3647059,15.5294118 Z" id="path15" fill-rule="nonzero"></path>
                                    <path d="M53.6235294,12.5411765 L53.6235294,13.1764706 C53.6235294,13.9764706 53.6470588,14.5882353 53.6941176,14.9882353 C53.7411765,15.3882353 53.8352941,15.6941176 54,15.8588235 C54.1411765,16.0470588 54.3764706,16.1411765 54.7058824,16.1411765 C55.1294118,16.1411765 55.4117647,15.9764706 55.5764706,15.6470588 C55.7411765,15.3176471 55.8117647,14.7764706 55.8352941,14 L58.2588235,14.1411765 C58.2823529,14.2588235 58.2823529,14.4 58.2823529,14.5882353 C58.2823529,15.7411765 57.9764706,16.6117647 57.3411765,17.1764706 C56.7058824,17.7411765 55.8117647,18.0235294 54.6588235,18.0235294 C53.2705882,18.0235294 52.3058824,17.5764706 51.7411765,16.7058824 C51.1764706,15.8352941 50.8941176,14.4941176 50.8941176,12.6588235 L50.8941176,10.4705882 C50.8941176,8.58823529 51.1764706,7.22352941 51.7647059,6.35294118 C52.3529412,5.48235294 53.3411765,5.05882353 54.7294118,5.05882353 C55.6941176,5.05882353 56.4470588,5.24705882 56.9647059,5.6 C57.4823529,5.95294118 57.8352941,6.51764706 58.0470588,7.24705882 C58.2588235,8 58.3529412,9.03529412 58.3529412,10.3529412 L58.3529412,12.4941176 L53.6235294,12.4941176 L53.6235294,12.5411765 Z M53.9764706,7.27058824 C53.8352941,7.45882353 53.7411765,7.74117647 53.6941176,8.14117647 C53.6470588,8.54117647 53.6235294,9.15294118 53.6235294,9.97647059 L53.6235294,10.8705882 L55.6941176,10.8705882 L55.6941176,9.97647059 C55.6941176,9.17647059 55.6705882,8.56470588 55.6235294,8.14117647 C55.5764706,7.71764706 55.4588235,7.43529412 55.3176471,7.27058824 C55.1764706,7.10588235 54.9411765,7.01176471 54.6588235,7.01176471 C54.3294118,6.98823529 54.1176471,7.08235294 53.9764706,7.27058824 Z" id="path17" fill-rule="nonzero"></path>
                                    <path d="M3.31764706,12.3058824 L0.117647059,0.705882353 L2.91764706,0.705882353 L4.04705882,5.95294118 C4.32941176,7.24705882 4.54117647,8.35294118 4.68235294,9.27058824 L4.75294118,9.27058824 C4.84705882,8.61176471 5.05882353,7.52941176 5.38823529,5.97647059 L6.56470588,0.705882353 L9.36470588,0.705882353 L6.11764706,12.3058824 L6.11764706,17.8588235 L3.34117647,17.8588235 L3.34117647,12.3058824 L3.31764706,12.3058824 Z" id="path19"></path>
                                    <path d="M25.5529412,5.34117647 L25.5529412,17.8823529 L23.3411765,17.8823529 L23.1058824,16.3529412 L23.0352941,16.3529412 C22.4470588,17.5058824 21.5294118,18.0941176 20.3294118,18.0941176 C19.5058824,18.0941176 18.8941176,17.8117647 18.4941176,17.2705882 C18.0941176,16.7294118 17.9058824,15.8823529 17.9058824,14.7058824 L17.9058824,5.34117647 L20.7294118,5.34117647 L20.7294118,14.5411765 C20.7294118,15.1058824 20.8,15.5058824 20.9176471,15.7411765 C21.0352941,15.9764706 21.2470588,16.0941176 21.5294118,16.0941176 C21.7647059,16.0941176 22,16.0235294 22.2352941,15.8588235 C22.4705882,15.7176471 22.6352941,15.5294118 22.7294118,15.2941176 L22.7294118,5.34117647 L25.5529412,5.34117647 Z" id="path21"></path>
                                    <path d="M40.0235294,5.34117647 L40.0235294,17.8823529 L37.8117647,17.8823529 L37.5764706,16.3529412 L37.5058824,16.3529412 C36.9176471,17.5058824 36,18.0941176 34.8,18.0941176 C33.9764706,18.0941176 33.3647059,17.8117647 32.9647059,17.2705882 C32.5647059,16.7294118 32.3764706,15.8823529 32.3764706,14.7058824 L32.3764706,5.34117647 L35.2,5.34117647 L35.2,14.5411765 C35.2,15.1058824 35.2705882,15.5058824 35.3882353,15.7411765 C35.5058824,15.9764706 35.7176471,16.0941176 36,16.0941176 C36.2352941,16.0941176 36.4705882,16.0235294 36.7058824,15.8588235 C36.9411765,15.7176471 37.1058824,15.5294118 37.2,15.2941176 L37.2,5.34117647 L40.0235294,5.34117647 Z" id="path23"></path>
                                    <polygon id="path25" points="33.2235294 2.98823529 30.4235294 2.98823529 30.4235294 17.8588235 27.6705882 17.8588235 27.6705882 2.98823529 24.8705882 2.98823529 24.8705882 0.705882353 33.2235294 0.705882353 33.2235294 2.98823529"></polygon>
                                    <path d="M49.3647059,7.34117647 C49.2,6.54117647 48.9176471,5.97647059 48.5411765,5.62352941 C48.1647059,5.27058824 47.6235294,5.08235294 46.9647059,5.08235294 C46.4470588,5.08235294 45.9529412,5.22352941 45.5058824,5.52941176 C45.0588235,5.81176471 44.7058824,6.21176471 44.4705882,6.68235294 L44.4470588,6.68235294 L44.4470588,0.0705882353 L41.7176471,0.0705882353 L41.7176471,17.8588235 L44.0470588,17.8588235 L44.3294118,16.6823529 L44.4,16.6823529 C44.6117647,17.1058824 44.9411765,17.4352941 45.3882353,17.6941176 C45.8352941,17.9294118 46.3058824,18.0705882 46.8470588,18.0705882 C47.8117647,18.0705882 48.4941176,17.6235294 48.9411765,16.7529412 C49.3882353,15.8823529 49.6235294,14.4941176 49.6235294,12.6352941 L49.6235294,10.6588235 C49.6,9.22352941 49.5294118,8.11764706 49.3647059,7.34117647 Z M46.7764706,12.4470588 C46.7764706,13.3647059 46.7294118,14.0705882 46.6588235,14.5882353 C46.5882353,15.1058824 46.4470588,15.4823529 46.2823529,15.6941176 C46.0941176,15.9058824 45.8588235,16.0235294 45.5764706,16.0235294 C45.3411765,16.0235294 45.1294118,15.9764706 44.9411765,15.8588235 C44.7529412,15.7411765 44.5882353,15.5764706 44.4705882,15.3647059 L44.4705882,8.25882353 C44.5647059,7.92941176 44.7294118,7.64705882 44.9647059,7.41176471 C45.2,7.2 45.4588235,7.08235294 45.7176471,7.08235294 C46,7.08235294 46.2352941,7.2 46.3764706,7.41176471 C46.5411765,7.64705882 46.6352941,8.02352941 46.7058824,8.54117647 C46.7764706,9.08235294 46.8,9.83529412 46.8,10.8 L46.8,12.4470588 L46.7764706,12.4470588 Z" id="path27" fill-rule="nonzero"></path>
                                </g>
                            </g>
                        </g>
                    </g>
                </g>
            </g>
        </g>
    </g>
</svg>