<?xml version="1.0" encoding="UTF-8"?>
<svg width="18px" height="14px" viewBox="0 0 18 14" version="1.1" xmlns="http://www.w3.org/2000/svg" xmlns:xlink="http://www.w3.org/1999/xlink">
    <!-- Generator: Sketch 52.6 (67491) - http://www.bohemiancoding.com/sketch -->
    <title>proxiesTab</title>
    <desc>Created with Sketch.</desc>
    <g id="Design" stroke="none" stroke-width="1" fill="none" fill-rule="evenodd">
        <g id="Tasks" transform="translate(-61.000000, -258.000000)" fill="#FFFFFF" fill-rule="nonzero">
            <g transform="translate(30.000000, 20.000000)" id="Sidebar">
                <g transform="translate(1.000000, 1.000000)">
                    <g id="Options" transform="translate(0.000000, 34.000000)">
                        <g id="Proxies-Tab" transform="translate(0.000000, 180.000000)">
                            <g id="proxiesTab" transform="translate(30.000000, 23.000000)">
                                <path d="M0.365121863,4.86541232 C0.808024189,5.30831464 1.51145729,5.35173644 1.98909706,4.95225591 C6.04469287,1.61746193 11.9326885,1.61746193 15.9969687,4.94357155 C16.4832928,5.34305208 17.1954103,5.30831464 17.6383126,4.86541232 C18.1506898,4.35303512 18.1159523,3.5019679 17.551469,3.04169686 C12.5926998,-1.01389895 5.419419,-1.01389895 0.451965456,3.04169686 C-0.112517901,3.49328354 -0.155939698,4.34435076 0.365121863,4.86541232 Z M7.10418471,11.6044752 L8.38078553,12.881076 C8.71947554,13.219766 9.26659018,13.219766 9.6052802,12.881076 L10.881881,11.6044752 C11.2900459,11.1963103 11.2032023,10.4928772 10.6821408,10.223662 C9.62264891,9.67654739 8.35473245,9.67654739 7.28655625,10.223662 C6.79154777,10.4928772 6.69601982,11.1963103 7.10418471,11.6044752 Z M3.86491867,8.36520913 C4.29045228,8.79074274 4.95914795,8.83416453 5.45415643,8.4781058 C7.57314011,6.97571164 10.42161,6.97571164 12.5405937,8.4781058 C13.0356021,8.82548018 13.7042978,8.79074274 14.1298314,8.36520913 L14.1385158,8.35652477 C14.6595773,7.83546321 14.6248399,6.94965856 14.0256191,6.52412495 C11.0381995,4.36171948 6.96523496,4.36171948 3.96913099,6.52412495 C3.36991019,6.95834292 3.33517276,7.83546321 3.86491867,8.36520913 Z"></path>
                            </g>
                        </g>
                    </g>
                </g>
            </g>
        </g>
    </g>
</svg>