<?xml version="1.0" encoding="UTF-8"?>
<svg width="20px" height="20px" viewBox="0 0 20 20" version="1.1" xmlns="http://www.w3.org/2000/svg" xmlns:xlink="http://www.w3.org/1999/xlink">
    <!-- Generator: Sketch 52.6 (67491) - http://www.bohemiancoding.com/sketch -->
    <title>settingsIcon</title>
    <desc>Created with Sketch.</desc>
    <g id="Design" stroke="none" stroke-width="1" fill="none" fill-rule="evenodd">
        <g id="Tasks" transform="translate(-60.000000, -315.000000)" fill="#FFFFFF" stroke="#FFFFFF">
            <g transform="translate(30.000000, 20.000000)" id="Sidebar">
                <g transform="translate(1.000000, 1.000000)">
                    <g id="Options" transform="translate(0.000000, 34.000000)">
                        <g id="Settings-Tab" transform="translate(0.000000, 240.000000)">
                            <g id="settingsIcon" transform="translate(30.000000, 21.000000)">
                                <g id="Shape">
                                    <path d="M17.0680585,7.10609186 L15.805428,6.89189562 C15.673904,6.46726096 15.5048017,6.05765762 15.2981211,5.66684342 L16.0421712,4.62592484 C16.3578288,4.18250104 16.308977,3.57749061 15.9219207,3.19419207 L14.8020877,2.07435908 C14.5916493,1.86392067 14.3135699,1.74742797 14.0167015,1.74742797 C13.7837161,1.74742797 13.5620042,1.81882672 13.3741127,1.95410856 L12.3294363,2.69815866 C11.9235908,2.48396242 11.4989562,2.30734447 11.0592902,2.17582046 L10.8488518,0.928221294 C10.7586639,0.390851775 10.2964509,3.75782881e-05 9.75156576,3.75782881e-05 L8.16951983,3.75782881e-05 C7.62463466,3.75782881e-05 7.16242171,0.390851775 7.07223382,0.928221294 L6.85427975,2.20588309 C6.43340292,2.3374071 6.02379958,2.51026722 5.63298539,2.72070564 L4.59958246,1.97665553 C4.41169102,1.8413737 4.18622129,1.76997495 3.95323591,1.76997495 C3.65636743,1.76997495 3.37453027,1.88646764 3.16784969,2.09690605 L2.04425887,3.21673904 C1.66096033,3.60003758 1.60835073,4.20504802 1.92400835,4.64847182 L2.67557411,5.70442171 C2.46889353,6.09899374 2.30354906,6.50859708 2.17578288,6.93323173 L0.928183716,7.14367015 C0.390814196,7.23385804 -2.84217094e-14,7.69607098 -2.84217094e-14,8.24095616 L-2.84217094e-14,9.82300209 C-2.84217094e-14,10.3678873 0.390814196,10.8301002 0.928183716,10.9202881 L2.20584551,11.1382422 C2.33736952,11.559119 2.51022965,11.9687223 2.72066806,12.3595365 L1.98037578,13.3891816 C1.66471816,13.8326054 1.71356994,14.4376159 2.1006263,14.8209144 L3.22045929,15.9407474 C3.4308977,16.1511858 3.70897704,16.2676785 4.00584551,16.2676785 C4.2388309,16.2676785 4.4605428,16.1962797 4.64843424,16.0609979 L5.70438413,15.3094322 C6.08392484,15.5085971 6.4822547,15.6701837 6.89185804,15.7979499 L7.10229645,17.0605804 C7.19248434,17.5979499 7.65469729,17.9887641 8.19958246,17.9887641 L9.78538622,17.9887641 C10.3302714,17.9887641 10.7924843,17.5979499 10.8826722,17.0605804 L11.0968685,15.7979499 C11.5215031,15.6664259 11.9311065,15.4973236 12.3219207,15.290643 L13.3628392,16.0346931 C13.5507307,16.1699749 13.7762004,16.2413737 14.0091858,16.2413737 C14.3060543,16.2413737 14.5841336,16.124881 14.794572,15.9144426 L15.914405,14.7946096 C16.2977035,14.4113111 16.3503132,13.8063006 16.0346555,13.3628768 L15.2906054,12.3182004 C15.497286,11.9236284 15.6701461,11.5140251 15.7979123,11.0931482 L17.0605428,10.8827098 C17.5979123,10.7925219 17.9887265,10.330309 17.9887265,9.7854238 L17.9887265,8.20337787 C17.9962422,7.65849269 17.605428,7.19627975 17.0680585,7.10609186 Z M16.9816284,9.7854238 C16.9816284,9.83427557 16.9478079,9.87561169 16.8989562,9.88312735 L15.3206681,10.1461754 C15.1215031,10.1799958 14.9636743,10.3265511 14.9148225,10.5182004 C14.7720251,11.0706013 14.554071,11.6004551 14.2609603,12.0927307 C14.159499,12.2655908 14.1670146,12.4797871 14.2835073,12.6451315 L15.211691,13.9528559 C15.2379958,13.9904342 15.234238,14.0468017 15.2004175,14.0806221 L14.0805846,15.2004551 C14.0542797,15.2267599 14.0279749,15.2305177 14.0091858,15.2305177 C13.9866388,15.2305177 13.9678497,15.2230021 13.9528184,15.2117286 L12.6488518,14.2835449 C12.4872651,14.1670522 12.2693111,14.1595365 12.0964509,14.2609979 C11.6041754,14.5541086 11.0743215,14.7720626 10.5219207,14.9148601 C10.3265136,14.9637119 10.1799582,15.1252985 10.1498956,15.3207056 L9.88308977,16.8989937 C9.87557411,16.9478455 9.834238,16.981666 9.78538622,16.981666 L8.20334029,16.981666 C8.15448852,16.981666 8.1131524,16.9478455 8.10563674,16.8989937 L7.84258873,15.3207056 C7.80876827,15.1215407 7.66221294,14.9637119 7.47056367,14.9148601 C6.93319415,14.7758205 6.41461378,14.5616242 5.92985386,14.2835449 C5.85093946,14.2384509 5.76075157,14.215904 5.6743215,14.215904 C5.57286013,14.215904 5.46764092,14.2459666 5.38121086,14.3098497 L4.06597077,15.2455491 C4.04718163,15.2568225 4.02839248,15.2643382 4.00960334,15.2643382 C3.99457203,15.2643382 3.96450939,15.2605804 3.93820459,15.2342756 L2.81837161,14.1144426 C2.78455115,14.0806221 2.78079332,14.0280125 2.80709812,13.9866764 L3.73152401,12.6902255 C3.8480167,12.524881 3.85553236,12.3069269 3.75407098,12.1340668 C3.46096033,11.6455491 3.23549061,11.1156952 3.09269311,10.5632944 C3.04008351,10.3716451 2.8822547,10.2250898 2.6868476,10.1912693 L1.09728601,9.92070564 C1.04843424,9.91318998 1.01461378,9.87185386 1.01461378,9.82300209 L1.01461378,8.24095616 C1.01461378,8.19210438 1.04843424,8.15076827 1.09728601,8.14325261 L2.66430063,7.88020459 C2.86346555,7.84638413 3.02505219,7.69982881 3.07390397,7.50442171 C3.21294363,6.95202088 3.42713987,6.41840919 3.71649269,5.92613361 C3.81795407,5.75327349 3.80668058,5.53907724 3.69018789,5.37749061 L2.75448852,4.06225052 C2.72818372,4.02467223 2.73194154,3.9683048 2.765762,3.93448434 L3.88559499,2.81465136 C3.91189979,2.78834656 3.93820459,2.78458873 3.95699374,2.78458873 C3.97954071,2.78458873 3.99832985,2.79210438 4.01336117,2.80337787 L5.30981211,3.72780376 C5.47515658,3.84429645 5.69311065,3.85181211 5.86597077,3.75035073 C6.35448852,3.45724008 6.88434238,3.23177035 7.43674322,3.08897286 C7.62839248,3.03636326 7.77494781,2.87853445 7.80876827,2.68312735 L8.07933194,1.09356576 C8.0868476,1.04471399 8.12818372,1.01089353 8.17703549,1.01089353 L9.75908142,1.01089353 C9.80793319,1.01089353 9.84926931,1.04471399 9.85678497,1.09356576 L10.119833,2.66058038 C10.1536534,2.8597453 10.3002088,3.02133194 10.4956159,3.07018372 C11.063048,3.21298121 11.6041754,3.43469311 12.1077244,3.73156159 C12.2805846,3.83302296 12.4947808,3.82550731 12.6601253,3.70901461 L13.9565762,2.77707307 C13.9753653,2.76579958 13.9941545,2.75828392 14.0129436,2.75828392 C14.0279749,2.75828392 14.0580376,2.76204175 14.0843424,2.78834656 L15.2041754,3.90817954 C15.2379958,3.942 15.2417537,3.9946096 15.2154489,4.03594572 L14.2872651,5.33991232 C14.1707724,5.50149896 14.1632568,5.71945303 14.2647182,5.89231315 C14.5578288,6.38458873 14.7757829,6.91444259 14.9185804,7.46684342 C14.9674322,7.66225052 15.1290188,7.80880585 15.3244259,7.83886848 L16.902714,8.10567432 C16.9515658,8.11318998 16.9853862,8.1545261 16.9853862,8.20337787 L16.9853862,9.7854238 L16.9816284,9.7854238 Z" stroke-width="0.4" fill-rule="nonzero"></path>
                                    <path d="M8.99624217,5.11068476 C6.85427975,5.11068476 5.11440501,6.8505595 5.11440501,8.99252192 C5.11440501,11.1344843 6.85427975,12.8743591 8.99624217,12.8743591 C11.1382046,12.8743591 12.8780793,11.1344843 12.8780793,8.99252192 C12.8780793,6.8505595 11.1382046,5.11068476 8.99624217,5.11068476 Z M8.99624217,11.8597453 C7.41419624,11.8597453 6.12901879,10.5745678 6.12901879,8.99252192 C6.12901879,7.41047599 7.41419624,6.12529854 8.99624217,6.12529854 C10.5782881,6.12529854 11.8634656,7.41047599 11.8634656,8.99252192 C11.8634656,10.5745678 10.5782881,11.8597453 8.99624217,11.8597453 Z" stroke-width="0.4" fill-rule="nonzero"></path>
                                </g>
                            </g>
                        </g>
                    </g>
                </g>
            </g>
        </g>
    </g>
</svg>