<?xml version="1.0" encoding="UTF-8"?>
<svg width="20px" height="21px" viewBox="0 0 20 21" version="1.1" xmlns="http://www.w3.org/2000/svg" xmlns:xlink="http://www.w3.org/1999/xlink">
    <!-- Generator: Sketch 52.6 (67491) - http://www.bohemiancoding.com/sketch -->
    <title>tasksIcon</title>
    <desc>Created with Sketch.</desc>
    <g id="Design" stroke="none" stroke-width="1" fill="none" fill-rule="evenodd">
        <g id="Tasks" transform="translate(-60.000000, -135.000000)" fill="#FFFFFF">
            <g transform="translate(30.000000, 20.000000)" id="Sidebar">
                <g transform="translate(1.000000, 1.000000)">
                    <g id="Options" transform="translate(0.000000, 34.000000)">
                        <g id="Tasks-Tab" transform="translate(0.000000, 60.000000)">
                            <g id="tasksIcon" transform="translate(29.000000, 20.000000)">
                                <g>
                                    <path d="M16.1397438,0.645079708 L19.2284136,3.22288201 C19.6546022,3.57857885 19.7118785,4.2123684 19.3563635,4.6387087 L19.3563635,4.6387087 C19.0008772,5.06501445 18.3671285,5.12247111 17.9407696,4.76704868 L14.8498252,2.19036769 C14.4230294,1.83458114 14.3654651,1.20017286 14.7212517,0.773377129 C14.7213936,0.773206938 14.7215355,0.773036794 14.7216775,0.772866697 L14.7216775,0.772866697 C15.0779901,0.346013634 15.7128606,0.288803199 16.1397438,0.645079708 Z M5.276814,0.772363856 L5.276814,0.772363856 C5.63274898,1.1988195 5.57558069,1.83307243 5.14912505,2.18900741 C5.14905919,2.18906238 5.14899332,2.18911734 5.14892745,2.18917229 L2.05930726,4.76653775 C1.63314285,5.12204469 0.999473013,5.0647655 0.64396607,4.63860109 C0.643856195,4.63846937 0.643746354,4.63833763 0.643636546,4.63820586 L0.643636546,4.63820586 C0.288090374,4.21155046 0.345499311,3.57750085 0.771896612,3.22164518 L3.85978063,0.644609539 C4.28636577,0.288597108 4.92078351,0.345793789 5.276814,0.772363856 Z M9.99949716,2.20244381 C5.0012571,2.20244381 0.948358224,6.25534269 0.948358224,11.2535827 C0.948358224,16.2518228 5.0012571,20.3047217 9.99949716,20.3047217 C14.9977372,20.3047217 19.0506361,16.2518228 19.0506361,11.2535827 C19.0506361,6.25534269 14.9977372,2.20244381 9.99949716,2.20244381 Z M9.99949716,18.2933575 C6.11756424,18.2933575 2.95972243,15.1355157 2.95972243,11.2535827 C2.95972243,7.37164982 6.11756424,4.21380802 9.99949716,4.21380802 C13.8814301,4.21380802 17.0392719,7.37164982 17.0392719,11.2535827 C17.0392719,15.1355157 13.8814301,18.2933575 9.99949716,18.2933575 Z" id="Shape" fill-rule="nonzero"></path>
                                    <path d="M8.07745615,13.3914254 L6.2365463,11.5505156 C6.02964289,11.3436122 5.6954143,11.3436122 5.48851089,11.5505156 C5.28160748,11.757419 5.28160748,12.0916476 5.48851089,12.298551 L7.70609105,14.5161312 C7.91299446,14.7230346 8.24722305,14.7230346 8.45412646,14.5161312 L14.0670447,8.90321297 C14.2739481,8.69630956 14.2739481,8.36208097 14.0670447,8.15517756 C13.8601413,7.94827415 13.5259127,7.94827415 13.3190093,8.15517756 L8.07745615,13.3914254 Z" id="Path" stroke="#FFFFFF" stroke-width="0.7" fill-rule="nonzero"></path>
                                </g>
                            </g>
                        </g>
                    </g>
                </g>
            </g>
        </g>
    </g>
</svg>