<?xml version="1.0" encoding="UTF-8"?>
<svg width="34px" height="34px" viewBox="0 0 34 34" version="1.1" xmlns="http://www.w3.org/2000/svg" xmlns:xlink="http://www.w3.org/1999/xlink">
    <!-- Generator: Sketch 52.6 (67491) - http://www.bohemiancoding.com/sketch -->
    <title>Add Button</title>
    <desc>Created with Sketch.</desc>
    <g id="Design" stroke="none" stroke-width="1" fill="none" fill-rule="evenodd">
        <g id="Tasks" transform="translate(-1117.000000, -54.000000)" fill="#FFFFFF">
            <g transform="translate(30.000000, 20.000000)" id="Tasks-Normal">
                <g transform="translate(80.000000, 1.000000)">
                    <g id="Header">
                        <g id="Buttons" transform="translate(789.000000, 32.000000)">
                            <g id="Normal" transform="translate(218.000000, 1.000000)">
                                <g id="Add-Button">
                                    <path d="M23,18 L18,18 L18,23 C18,23.55 17.55,24 17,24 C16.45,24 16,23.55 16,23 L16,18 L11,18 C10.45,18 10,17.55 10,17 C10,16.45 10.45,16 11,16 L16,16 L16,11 C16,10.45 16.45,10 17,10 C17.55,10 18,10.45 18,11 L18,16 L23,16 C23.55,16 24,16.45 24,17 C24,17.55 23.55,18 23,18 Z" id="Path" fill-opacity="0.8"></path>
                                </g>
                            </g>
                        </g>
                    </g>
                </g>
            </g>
        </g>
    </g>
</svg>
