<?xml version="1.0" encoding="UTF-8"?>
<svg width="16px" height="16px" viewBox="0 0 16 16" version="1.1" xmlns="http://www.w3.org/2000/svg" xmlns:xlink="http://www.w3.org/1999/xlink">
    <!-- Generator: Sketch 53.1 (72631) - https://sketchapp.com -->
    <title>ArchiveIcon</title>
    <desc>Created with Sketch.</desc>
    <g id="Design" stroke="none" stroke-width="1" fill="none" fill-rule="evenodd">
        <g id="Edit-Tasks" transform="translate(-736.000000, -771.000000)" fill="#FFFFFF" fill-rule="nonzero">
            <g id="Tasks" transform="translate(30.000000, 20.000000)">
                <g id="Edit-Tasks-Tasks-Selected" transform="translate(80.000000, 1.000000)">
                    <g id="Archive-Button" transform="translate(486.000000, 738.000000)">
                        <path d="M155.595556,13.9777778 L154.364444,12.4844444 C154.115556,12.1911111 153.746667,12 153.333333,12 L142.666667,12 C142.253333,12 141.884444,12.1911111 141.64,12.4844444 L140.408889,13.9777778 C140.151111,14.2888889 140,14.68 140,15.1111111 L140,26.2222222 C140,27.2044444 140.795556,28 141.777778,28 L154.222222,28 C155.204444,28 156,27.2044444 156,26.2222222 L156,15.1111111 C156,14.68 155.848889,14.2888889 155.595556,13.9777778 Z M147.646447,24.5353355 L143.537888,20.4267767 C143.440257,20.3291456 143.440257,20.1708544 143.537888,20.0732233 C143.584772,20.0263392 143.64836,20 143.714665,20 L146.222222,20 L146.222222,18.4722222 C146.222222,18.334151 146.334151,18.2222222 146.472222,18.2222222 L149.527778,18.2222222 C149.665849,18.2222222 149.777778,18.334151 149.777778,18.4722222 L149.777778,20 L152.285335,20 C152.423407,20 152.535335,20.1119288 152.535335,20.25 C152.535335,20.3163041 152.508996,20.3798926 152.462112,20.4267767 L148.353553,24.5353355 C148.158291,24.7305976 147.841709,24.7305976 147.646447,24.5353355 Z M142.613333,12.8888889 L153.28,12.8888889 L154.111111,13.7777778 L141.888889,13.7777778 L142.613333,12.8888889 Z" id="ArchiveIcon"></path>
                    </g>
                </g>
            </g>
        </g>
    </g>
</svg>