<?xml version="1.0" encoding="UTF-8"?>
<svg width="12px" height="16px" viewBox="0 0 12 16" version="1.1" xmlns="http://www.w3.org/2000/svg" xmlns:xlink="http://www.w3.org/1999/xlink">
    <!-- Generator: Sketch 52.6 (67491) - http://www.bohemiancoding.com/sketch -->
    <title>DeleteIcon</title>
    <desc>Created with Sketch.</desc>
    <g id="Design" stroke="none" stroke-width="1" fill="none" fill-rule="evenodd">
        <g id="Edit-Tasks" transform="translate(-738.000000, -771.000000)" fill="#FFFFFF" fill-rule="nonzero">
            <g id="Tasks" transform="translate(30.000000, 20.000000)">
                <g id="Edit-Tasks-Tasks-Selected" transform="translate(80.000000, 1.000000)">
                    <g id="Delete-Button" transform="translate(498.000000, 738.000000)">
                        <g id="Group" transform="translate(121.000000, 5.000000)">
                            <path d="M9.85714286,20.7142857 C9.85714286,21.6571429 10.6285714,22.4285714 11.5714286,22.4285714 L18.4285714,22.4285714 C19.3714286,22.4285714 20.1428571,21.6571429 20.1428571,20.7142857 L20.1428571,12.1428571 C20.1428571,11.2 19.3714286,10.4285714 18.4285714,10.4285714 L11.5714286,10.4285714 C10.6285714,10.4285714 9.85714286,11.2 9.85714286,12.1428571 L9.85714286,20.7142857 Z M12.5742857,14.0028571 C12.9085714,13.6685714 13.4485714,13.6685714 13.7828571,14.0028571 L15,15.22 L16.2171429,14.0028571 C16.5514286,13.6685714 17.0914286,13.6685714 17.4257143,14.0028571 C17.76,14.3371429 17.76,14.8771429 17.4257143,15.2114286 L16.2085714,16.4285714 L17.4257143,17.6457143 C17.76,17.98 17.76,18.52 17.4257143,18.8542857 C17.0914286,19.1885714 16.5514286,19.1885714 16.2171429,18.8542857 L15,17.6371429 L13.7828571,18.8542857 C13.4485714,19.1885714 12.9085714,19.1885714 12.5742857,18.8542857 C12.24,18.52 12.24,17.98 12.5742857,17.6457143 L13.7914286,16.4285714 L12.5742857,15.2114286 C12.24,14.8857143 12.24,14.3371429 12.5742857,14.0028571 Z M18,7.85714286 L17.3914286,7.24857143 C17.2371429,7.09428571 17.0142857,7 16.7914286,7 L13.2085714,7 C12.9857143,7 12.7628571,7.09428571 12.6085714,7.24857143 L12,7.85714286 L9.85714286,7.85714286 C9.38571429,7.85714286 9,8.24285714 9,8.71428571 C9,9.18571429 9.38571429,9.57142857 9.85714286,9.57142857 L20.1428571,9.57142857 C20.6142857,9.57142857 21,9.18571429 21,8.71428571 C21,8.24285714 20.6142857,7.85714286 20.1428571,7.85714286 L18,7.85714286 Z" id="DeleteIcon"></path>
                        </g>
                    </g>
                </g>
            </g>
        </g>
    </g>
</svg>