<?xml version="1.0" encoding="UTF-8"?>
<svg width="14px" height="17px" viewBox="0 0 14 17" version="1.1" xmlns="http://www.w3.org/2000/svg" xmlns:xlink="http://www.w3.org/1999/xlink">
    <!-- Generator: Sketch 53.1 (72631) - https://sketchapp.com -->
    <title>DeleteIcon</title>
    <desc>Created with Sketch.</desc>
    <g id="Symbols" stroke="none" stroke-width="1" fill="none" fill-rule="evenodd">
        <g id="DeleteIcon" fill="#FF4C40" fill-rule="nonzero">
            <path d="M1.34444444,15.1111111 C1.34444444,16.15 2.19444444,17 3.23333333,17 L10.7888889,17 C11.8277778,17 12.6777778,16.15 12.6777778,15.1111111 L12.6777778,5.66666667 C12.6777778,4.62777778 11.8277778,3.77777778 10.7888889,3.77777778 L3.23333333,3.77777778 C2.19444444,3.77777778 1.34444444,4.62777778 1.34444444,5.66666667 L1.34444444,15.1111111 Z M4.33833333,7.71611111 C4.70666667,7.34777778 5.30166667,7.34777778 5.67,7.71611111 L7.01111111,9.05722222 L8.35222222,7.71611111 C8.72055556,7.34777778 9.31555556,7.34777778 9.68388889,7.71611111 C10.0522222,8.08444444 10.0522222,8.67944444 9.68388889,9.04777778 L8.34277778,10.3888889 L9.68388889,11.73 C10.0522222,12.0983333 10.0522222,12.6933333 9.68388889,13.0616667 C9.31555556,13.43 8.72055556,13.43 8.35222222,13.0616667 L7.01111111,11.7205556 L5.67,13.0616667 C5.30166667,13.43 4.70666667,13.43 4.33833333,13.0616667 C3.97,12.6933333 3.97,12.0983333 4.33833333,11.73 L5.67944444,10.3888889 L4.33833333,9.04777778 C3.97,8.68888889 3.97,8.08444444 4.33833333,7.71611111 Z M10.3166667,0.944444444 L9.64611111,0.273888889 C9.47611111,0.103888889 9.23055556,0 8.985,0 L5.03722222,0 C4.79166667,0 4.54611111,0.103888889 4.37611111,0.273888889 L3.70555556,0.944444444 L1.34444444,0.944444444 C0.825,0.944444444 0.4,1.36944444 0.4,1.88888889 C0.4,2.40833333 0.825,2.83333333 1.34444444,2.83333333 L12.6777778,2.83333333 C13.1972222,2.83333333 13.6222222,2.40833333 13.6222222,1.88888889 C13.6222222,1.36944444 13.1972222,0.944444444 12.6777778,0.944444444 L10.3166667,0.944444444 Z"></path>
        </g>
    </g>
</svg>