<?xml version="1.0" encoding="UTF-8"?>
<svg width="34px" height="34px" viewBox="0 0 34 34" version="1.1" xmlns="http://www.w3.org/2000/svg" xmlns:xlink="http://www.w3.org/1999/xlink">
    <!-- Generator: Sketch 53.2 (72643) - https://sketchapp.com -->
    <title>Edit Button</title>
    <desc>Created with Sketch.</desc>
    <g id="Design" stroke="none" stroke-width="1" fill="none" fill-rule="evenodd">
        <g id="Item-States-(for-reference,-not-clearly-shown-in-other-screens)" transform="translate(-262.000000, -252.000000)" fill="#FFFFFF">
            <g id="Normal" transform="translate(30.000000, 30.000000)">
                <g id="Edit-Button" transform="translate(232.000000, 222.000000)">
                    <path d="M17.577738,22.8397493 C17.23396,23.1071322 16.7469412,23.1071322 16.4031632,22.8397493 L10.5302895,18.2751417 C10.1865115,18.0077589 9.70904208,18.0077589 9.3652641,18.2751417 C8.8782453,18.6571173 8.8782453,19.3924202 9.3652641,19.7743957 L15.8206506,24.7973739 C16.5082065,25.3321397 17.4726947,25.3321397 18.1698001,24.7973739 L24.6251865,19.7743957 C25.1122053,19.3924202 25.1122053,18.6571173 24.6251865,18.2751417 L24.6156371,18.2655924 C24.2718591,17.9982095 23.7943897,17.9982095 23.4506118,18.2655924 L17.577738,22.8397493 L17.577738,22.8397493 Z M18.1793494,19.9558341 L24.6347359,14.9328559 C25.1217547,14.5508803 25.1217547,13.8060281 24.6347359,13.4240525 L18.1793494,8.40107431 C17.4917935,7.86630856 16.5273053,7.86630856 15.8301999,8.40107431 L9.37481349,13.4336019 C8.88779469,13.8155774 8.88779469,14.5604297 9.37481349,14.9424053 L15.8301999,19.9653835 C16.5177559,20.5001492 17.4917935,20.5001492 18.1793494,19.9558341 Z" id="Shape" fill-opacity="0.8" fill-rule="nonzero"></path>
                </g>
            </g>
        </g>
    </g>
</svg>
