<?xml version="1.0" encoding="UTF-8"?>
<svg width="34px" height="34px" viewBox="0 0 34 34" version="1.1" xmlns="http://www.w3.org/2000/svg" xmlns:xlink="http://www.w3.org/1999/xlink">
    <!-- Generator: Sketch 53.2 (72643) - https://sketchapp.com -->
    <title>Edit Button</title>
    <desc>Created with Sketch.</desc>
    <g id="Design" stroke="none" stroke-width="1" fill="none" fill-rule="evenodd">
        <g id="Item-States-(for-reference,-not-clearly-shown-in-other-screens)" transform="translate(-118.000000, -30.000000)" fill="#FFFFFF">
            <g id="Normal" transform="translate(30.000000, 30.000000)">
                <g id="Edit-Button" transform="translate(88.000000, 0.000000)">
                    <circle id="Button" stroke-opacity="0.1" stroke="#FFFFFF" fill-opacity="0.1" cx="17" cy="17" r="16.5"></circle>
                    <path d="M11,15 C9.9,15 9,15.9 9,17 C9,18.1 9.9,19 11,19 C12.1,19 13,18.1 13,17 C13,15.9 12.1,15 11,15 Z M23,15 C21.9,15 21,15.9 21,17 C21,18.1 21.9,19 23,19 C24.1,19 25,18.1 25,17 C25,15.9 24.1,15 23,15 Z M17,15 C15.9,15 15,15.9 15,17 C15,18.1 15.9,19 17,19 C18.1,19 19,18.1 19,17 C19,15.9 18.1,15 17,15 Z" id="Shape" fill-rule="nonzero"></path>
                </g>
            </g>
        </g>
    </g>
</svg>