<?xml version="1.0" encoding="UTF-8"?>
<svg width="34px" height="34px" viewBox="0 0 34 34" version="1.1" xmlns="http://www.w3.org/2000/svg" xmlns:xlink="http://www.w3.org/1999/xlink">
    <!-- Generator: Sketch 52.6 (67491) - http://www.bohemiancoding.com/sketch -->
    <title>Import Button</title>
    <desc>Created with Sketch.</desc>
    <defs>
        <linearGradient x1="50%" y1="1.54895231%" x2="50%" y2="96.9411885%" id="linearGradient-1">
            <stop stop-color="#7B4DD4" offset="0%"></stop>
            <stop stop-color="#4B2693" offset="100%"></stop>
        </linearGradient>
    </defs>
    <g id="Design" stroke="none" stroke-width="1" fill="none" fill-rule="evenodd">
        <g id="Tasks" transform="translate(-1161.000000, -54.000000)">
            <g transform="translate(30.000000, 20.000000)" id="Tasks-Normal">
                <g transform="translate(80.000000, 1.000000)">
                    <g id="Header">
                        <g id="Buttons" transform="translate(789.000000, 33.000000)">
                            <g id="Hover">
                                <g id="Import-Button" transform="translate(262.000000, 0.000000)">
                                    <circle id="Button" fill="url(#linearGradient-1)" cx="17" cy="17" r="17"></circle>
                                    <g id="Icon" transform="translate(10.000000, 9.000000)" fill="#FFFFFF">
                                        <path d="M6.31153213,0.691927512 L6.31153213,8.42075783 L2.93492586,5.04415157 C2.66507414,4.77429984 2.22224053,4.77429984 1.9523888,5.04415157 C1.68253707,5.31400329 1.68253707,5.74991763 1.9523888,6.01976936 L6.5121911,10.5795717 C6.78204283,10.8494234 7.21795717,10.8494234 7.4878089,10.5795717 L12.0476112,6.01976936 C12.3174629,5.74991763 12.3174629,5.31400329 12.0476112,5.04415157 C11.7777595,4.77429984 11.3418451,4.77429984 11.0719934,5.04415157 L7.69538715,8.42075783 L7.69538715,0.691927512 C7.69538715,0.311367381 7.38401977,-1.0658141e-13 7.00345964,-1.0658141e-13 C6.62289951,-1.0658141e-13 6.31153213,0.311367381 6.31153213,0.691927512 Z" id="Path" stroke="#FFFFFF" stroke-width="0.5"></path>
                                        <path d="M12.25,11.375 L12.25,13.125 L1.75,13.125 L1.75,11.375 C1.75,10.89375 1.35625,10.5 0.875,10.5 C0.39375,10.5 0,10.89375 0,11.375 L0,14 C0,14.48125 0.39375,14.875 0.875,14.875 L13.125,14.875 C13.60625,14.875 14,14.48125 14,14 L14,11.375 C14,10.89375 13.60625,10.5 13.125,10.5 C12.64375,10.5 12.25,10.89375 12.25,11.375 Z" id="Path"></path>
                                    </g>
                                </g>
                            </g>
                        </g>
                    </g>
                </g>
            </g>
        </g>
    </g>
</svg>