<?xml version="1.0" encoding="UTF-8"?>
<svg width="141px" height="104px" viewBox="0 0 141 104" version="1.1" xmlns="http://www.w3.org/2000/svg" xmlns:xlink="http://www.w3.org/1999/xlink">
    <!-- Generator: Sketch 52.6 (67491) - http://www.bohemiancoding.com/sketch -->
    <title>Icon</title>
    <desc>Created with Sketch.</desc>
    <defs>
        <linearGradient x1="50%" y1="1.54895231%" x2="50%" y2="96.9411885%" id="linearGradient-1">
            <stop stop-color="#7B4DD4" offset="0%"></stop>
            <stop stop-color="#4B2693" offset="100%"></stop>
        </linearGradient>
        <linearGradient x1="50%" y1="1.58959538%" x2="50%" y2="95.2714654%" id="linearGradient-2">
            <stop stop-color="#F3EDFF" offset="0%"></stop>
            <stop stop-color="#DFCFFF" offset="100%"></stop>
        </linearGradient>
    </defs>
    <g id="Design" stroke="none" stroke-width="1" fill="none" fill-rule="evenodd">
        <g id="Proxies-(None)" transform="translate(-617.000000, -416.000000)" fill="url(#linearGradient-1)" fill-rule="nonzero" stroke="url(#linearGradient-2)" stroke-width="2">
            <g id="Proxies" transform="translate(30.000000, 20.000000)">
                <g id="Proxies-(None)" transform="translate(80.000000, 1.000000)">
                    <g id="Info" transform="translate(389.000000, 397.000000)">
                        <g id="Icon" transform="translate(120.000000, 0.000000)">
                            <path d="M2.06993207,37.9408329 C-2.30524084,33.5415008 -1.9562479,26.3359427 2.80544455,22.5056174 C40.9822232,-8.83529663 96.1106599,-8.83529663 134.220208,22.5052176 C138.959291,26.3907303 139.284664,33.5884752 134.956208,37.9408329 C131.218438,41.6992422 125.214884,41.9888259 121.119291,38.6060097 C90.5432511,13.4451383 46.2627881,13.464573 15.7828713,38.6656364 C11.7628465,42.0464047 5.82035578,41.711966 2.06993207,37.9408329 Z M52.2658298,89.1951768 C48.6510754,85.6585048 49.4828519,79.554935 53.9200039,77.194213 C62.419168,72.9350168 72.5057646,72.9350168 80.9389359,77.1957823 C85.5240437,79.5135825 86.3816686,85.6161233 82.723597,89.1951768 L72.9036327,98.80302 C69.909653,101.732327 65.0797738,101.732327 62.0857941,98.80302 L52.2658298,89.1951768 Z M28.1383637,64.029266 C23.6331272,59.5401144 24.0119007,52.1568122 29.0552884,48.5152337 C52.2588291,31.8281214 83.7984626,31.8281214 106.928512,48.5107873 C111.96466,52.0744132 112.370841,59.5262295 107.917915,63.9632575 L107.85167,64.029266 C104.292582,67.5756473 98.6602729,67.9425989 94.4459767,64.9957424 C78.62806,53.8206213 57.3619735,53.8206213 41.5495981,64.9917992 C37.3665263,67.989933 31.7224803,67.6005864 28.1383637,64.029266 Z" id="proxiesTab"></path>
                        </g>
                    </g>
                </g>
            </g>
        </g>
    </g>
</svg>