<?xml version="1.0" encoding="UTF-8"?>
<svg width="98px" height="100px" viewBox="0 0 98 100" version="1.1" xmlns="http://www.w3.org/2000/svg" xmlns:xlink="http://www.w3.org/1999/xlink">
    <!-- Generator: Sketch 52.6 (67491) - http://www.bohemiancoding.com/sketch -->
    <title>Group 3</title>
    <desc>Created with Sketch.</desc>
    <defs>
        <linearGradient x1="50%" y1="1.54895231%" x2="50%" y2="96.9411885%" id="linearGradient-1">
            <stop stop-color="#7B4DD4" offset="0%"></stop>
            <stop stop-color="#4B2693" offset="100%"></stop>
        </linearGradient>
        <linearGradient x1="50%" y1="1.58959538%" x2="50%" y2="100%" id="linearGradient-2">
            <stop stop-color="#E6DAFF" offset="0%"></stop>
            <stop stop-color="#CAAFFF" offset="100%"></stop>
        </linearGradient>
        <linearGradient x1="50%" y1="-454.668837%" x2="50%" y2="531.465093%" id="linearGradient-3">
            <stop stop-color="#E6DAFF" offset="0%"></stop>
            <stop stop-color="#CAAFFF" offset="100%"></stop>
        </linearGradient>
    </defs>
    <g id="Design" stroke="none" stroke-width="1" fill="none" fill-rule="evenodd">
        <g id="Tasks-(None)" transform="translate(-637.000000, -418.000000)">
            <g id="Tasks" transform="translate(30.000000, 20.000000)">
                <g id="Tasks-None" transform="translate(80.000000, 1.000000)">
                    <g id="Info" transform="translate(389.000000, 397.000000)">
                        <g id="Group-3" transform="translate(138.000000, 0.000000)">
                            <g id="alarm-clock">
                                <g id="Group" transform="translate(19.159526, 88.783699)" fill="url(#linearGradient-1)">
                                    <path d="M7.36307628,0.900022989 L0.516286311,7.74681296 C-0.164388715,8.42748798 -0.164388715,9.52770951 0.516286311,10.2083845 C0.855753396,10.5478516 1.30141275,10.7184556 1.7470721,10.7184556 C2.19273145,10.7184556 2.6383908,10.5478516 2.97785789,10.2083845 L9.82464786,3.36159457 C10.5053229,2.68091954 10.5053229,1.58069801 9.82464786,0.900022989 C9.14397283,0.219347962 8.04375131,0.219347962 7.36307628,0.900022989 Z" id="Path"></path>
                                    <path d="M58.6852769,7.74681296 L51.7862612,0.847797283 C51.1055862,0.167122257 50.0053647,0.167122257 49.3246897,0.847797283 C48.6440146,1.52847231 48.6440146,2.62869383 49.3246897,3.30936886 L56.2237053,10.2083845 C56.5631724,10.5478516 57.0088318,10.7184556 57.4544911,10.7184556 C57.9001505,10.7184556 58.3458098,10.5478516 58.6852769,10.2083845 C59.3659519,9.52770951 59.3659519,8.42574713 58.6852769,7.74681296 Z" id="Path"></path>
                                </g>
                                <path d="M81.3578523,19.3739958 C81.3996329,19.3391787 81.4501177,19.3252518 81.4901574,19.286953 L86.712728,14.0643824 C87.393403,13.3837074 87.393403,12.2834859 86.712728,11.6028109 C86.0320529,10.9221358 84.9318314,10.9221358 84.2511564,11.6028109 L79.0285859,16.8253814 C78.9746193,16.879348 78.953729,16.9489822 78.9084667,17.0064305 C70.904007,9.85150888 60.3439693,5.49588506 48.7620488,5.49588506 C37.1801282,5.49588506 26.6200906,9.85150888 18.6138899,17.0046897 C18.5686277,16.9472414 18.5477374,16.8776071 18.4937708,16.8236405 L13.2712003,11.60107 C12.5905253,10.920395 11.4903037,10.920395 10.8096287,11.60107 C10.1289537,12.281745 10.1289537,13.3819666 10.8096287,14.0626416 L16.0321992,19.2852121 C16.0704981,19.323511 16.1227238,19.3374378 16.1645044,19.372255 C8.32716684,27.5107607 3.49977081,38.5669425 3.49977081,50.7564222 C3.49977081,75.7533856 23.7650853,96.0187001 48.7620488,96.0187001 C73.7590122,96.0187001 94.0243267,75.7533856 94.0243267,50.7564222 C94.0225859,38.5669425 89.1951898,27.5107607 81.3578523,19.3739958 Z" id="Path" fill="url(#linearGradient-2)"></path>
                                <path d="M93.874613,3.63142738 C98.7159359,8.47275026 98.7159359,16.3222738 93.874613,21.1635967 L76.3407029,3.63142738 C81.1837666,-1.20989551 89.0315493,-1.20989551 93.874613,3.63142738 Z" id="Path" fill="url(#linearGradient-1)"></path>
                                <path d="M3.64774364,3.63142738 C-1.19357924,8.47275026 -1.19357924,16.3222738 3.64774364,21.1635967 L21.1799129,3.63142738 C16.33859,-1.20989551 8.48906653,-1.20989551 3.64774364,3.63142738 Z" id="Path" fill="url(#linearGradient-1)"></path>
                            </g>
                            <g id="clock" transform="translate(9.000000, 11.000000)">
                                <circle id="Oval" fill="url(#linearGradient-1)" cx="40" cy="40" r="39.8914286"></circle>
                                <path d="M37.9434133,38.6606332 L37.3671633,38.6606332 C36.2948419,38.6606332 35.425199,37.7913475 35.425199,36.7186689 L35.425199,13.0997403 C35.425199,12.0274189 36.2944847,11.157776 37.3671633,11.157776 L37.9434133,11.157776 C39.0157347,11.157776 39.8853776,12.0270618 39.8853776,13.0997403 L39.8853776,36.719026 C39.8850205,37.7913475 39.0157347,38.6606332 37.9434133,38.6606332 Z" id="Path" fill="#FFFFFF" transform="translate(37.655288, 24.909205) rotate(-6.000000) translate(-37.655288, -24.909205) "></path>
                                <path d="M43.9668893,24.5833179 L44.3743893,24.9908179 C45.1326036,25.7490322 45.1326036,26.978675 44.3743893,27.7370679 L30.7370679,41.3743893 C29.9788536,42.1326036 28.7492107,42.1326036 27.9908179,41.3743893 L27.5833179,40.9668893 C26.8251036,40.208675 26.8251036,38.9790322 27.5833179,38.2206393 L41.2206393,24.5833179 C41.9788536,23.8251036 43.2083179,23.8251036 43.9668893,24.5833179 Z" id="Path" fill="#FFFFFF" transform="translate(35.978854, 32.978854) rotate(105.000000) translate(-35.978854, -32.978854) "></path>
                                <path d="M39.2781903,36.6638355 C39.3872974,37.1066926 39.1165831,37.5541926 38.673726,37.6632998 L12.5885474,44.0870498 C12.1456903,44.1961569 11.6981903,43.9254426 11.5890831,43.4825855 C11.479976,43.0397284 11.7506903,42.5922284 12.1935474,42.4831212 L38.278726,36.0593712 C38.7215831,35.9502641 39.1690831,36.2207998 39.2781903,36.6638355 Z" id="Path" fill="#F63F32" transform="translate(25.433637, 40.073205) rotate(14.000000) translate(-25.433637, -40.073205) "></path>
                                <circle id="Oval" fill="url(#linearGradient-3)" cx="40" cy="40" r="3.68607143"></circle>
                                <path d="M40.1423214,10.1432143 L39.8576786,10.1432143 C38.7046429,10.1432143 37.77,9.20857143 37.77,8.05553571 L37.77,5.45839286 C37.77,4.30535714 38.7046429,3.37071429 39.8576786,3.37071429 L40.1423214,3.37071429 C41.2953571,3.37071429 42.23,4.30535714 42.23,5.45839286 L42.23,8.05553571 C42.2298214,9.20857143 41.2951786,10.1432143 40.1423214,10.1432143 Z" id="Path" fill="url(#linearGradient-3)"></path>
                                <path d="M40.1423214,76.6292857 L39.8576786,76.6292857 C38.7046429,76.6292857 37.77,75.6946429 37.77,74.5416071 L37.77,71.9446429 C37.77,70.7916071 38.7046429,69.8569643 39.8576786,69.8569643 L40.1423214,69.8569643 C41.2953571,69.8569643 42.23,70.7916071 42.23,71.9446429 L42.23,74.5417857 C42.2298214,75.6944643 41.2951786,76.6292857 40.1423214,76.6292857 Z" id="Path" fill="url(#linearGradient-3)"></path>
                                <path d="M69.8567857,40.1423214 L69.8567857,39.8576786 C69.8567857,38.7046429 70.7914286,37.77 71.9444643,37.77 L74.5416071,37.77 C75.6946429,37.77 76.6292857,38.7046429 76.6292857,39.8576786 L76.6292857,40.1423214 C76.6292857,41.2953571 75.6946429,42.23 74.5416071,42.23 L71.9444643,42.23 C70.7914286,42.2298214 69.8567857,41.2951786 69.8567857,40.1423214 Z" id="Path" fill="url(#linearGradient-3)"></path>
                                <path d="M3.37071429,40.1423214 L3.37071429,39.8576786 C3.37071429,38.7046429 4.30535714,37.77 5.45839286,37.77 L8.05535714,37.77 C9.20839286,37.77 10.1430357,38.7046429 10.1430357,39.8576786 L10.1430357,40.1423214 C10.1430357,41.2953571 9.20839286,42.23 8.05535714,42.23 L5.45839286,42.23 C4.30553571,42.2298214 3.37071429,41.2951786 3.37071429,40.1423214 Z" id="Path" fill="url(#linearGradient-3)"></path>
                            </g>
                        </g>
                    </g>
                </g>
            </g>
        </g>
    </g>
</svg>