<?xml version="1.0" encoding="UTF-8"?>
<svg width="28px" height="17px" viewBox="0 0 28 17" version="1.1" xmlns="http://www.w3.org/2000/svg" xmlns:xlink="http://www.w3.org/1999/xlink">
    <!-- Generator: Sketch 52.6 (67491) - http://www.bohemiancoding.com/sketch -->
    <title>AmericanExpressMiniLogo</title>
    <desc>Created with Sketch.</desc>
    <defs>
        <rect id="path-1" x="0" y="0" width="28" height="17" rx="2"></rect>
        <radialGradient cx="17.5409177%" cy="17.466056%" fx="17.5409177%" fy="17.466056%" r="93.5022936%" gradientTransform="translate(0.175409,0.174661),scale(0.997701,1.000000),translate(-0.175409,-0.174661)" id="radialGradient-3">
            <stop stop-color="#9DD5F6" offset="0%"></stop>
            <stop stop-color="#98D3F5" offset="7.11%"></stop>
            <stop stop-color="#89CEF3" offset="15.75%"></stop>
            <stop stop-color="#70C6EF" offset="25.16%"></stop>
            <stop stop-color="#4EBBEA" offset="35.14%"></stop>
            <stop stop-color="#23ADE3" offset="45.46%"></stop>
            <stop stop-color="#0DA6E0" offset="50%"></stop>
            <stop stop-color="#2E77BC" offset="100%"></stop>
        </radialGradient>
    </defs>
    <g id="AmericanExpressMiniLogo" stroke="none" stroke-width="1" fill="none" fill-rule="evenodd">
        <g>
            <mask id="mask-2" fill="white">
                <use xlink:href="#path-1"></use>
            </mask>
            <use id="Base" fill="#FFFFFF" xlink:href="#path-1"></use>
            <g id="American_Express_logo" mask="url(#mask-2)">
                <g transform="translate(6.500000, 1.000000)">
                    <path d="M14.9252113,0.031584507 L0.03375,0.031584507 L0.03375,14.9769718 L14.9252113,14.9769718 L14.9252113,10.0446127 C14.9843662,9.95910211 15.0135739,9.84971831 15.0135739,9.71598592 C15.0135739,9.56292254 14.9843662,9.4681162 14.9252113,9.38825704" id="Path" fill="url(#radialGradient-3)" fill-rule="evenodd"></path>
                    <path d="M1.37603873,6.49869718 L1.08955986,5.8006162 L0.80471831,6.49869718 L1.37603873,6.49869718 Z M7.68713028,6.22072183 C7.62961268,6.2556338 7.56158451,6.25679577 7.48008803,6.25679577 L6.97161972,6.25679577 L6.97161972,5.86785211 L7.48700704,5.86785211 C7.55994718,5.86785211 7.63605634,5.87112676 7.68549296,5.89943662 C7.73978873,5.92494718 7.77338028,5.97924296 7.77338028,6.05424296 C7.77338028,6.13077465 7.74142606,6.19235915 7.68713028,6.22072183 Z M11.3144894,6.49869718 L11.0248415,5.8006162 L10.7367782,6.49869718 L11.3144894,6.49869718 Z M4.55286972,7.25429577 L4.12378521,7.25429577 L4.1222007,5.88285211 L3.51528169,7.25429577 L3.14778169,7.25429577 L2.53927817,5.88163732 L2.53927817,7.25429577 L1.68797535,7.25429577 L1.52714789,6.86371479 L0.655669014,6.86371479 L0.493204225,7.25429577 L0.0386091549,7.25429577 L0.788133803,5.50320423 L1.41,5.50320423 L2.1218662,7.16112676 L2.1218662,5.50320423 L2.805,5.50320423 L3.35276408,6.69110915 L3.8559507,5.50320423 L4.5528169,5.50320423 L4.5528169,7.25429577 L4.55286972,7.25429577 Z M6.26302817,7.25429577 L4.86480634,7.25429577 L4.86480634,5.50320423 L6.26302817,5.50320423 L6.26302817,5.86785211 L5.28338028,5.86785211 L5.28338028,6.18348592 L6.23952465,6.18348592 L6.23952465,6.54242958 L5.28338028,6.54242958 L5.28338028,6.89213028 L6.26302817,6.89213028 L6.26302817,7.25429577 Z M8.23447183,5.97480634 C8.23447183,6.25399648 8.0481338,6.39823944 7.93954225,6.4415493 C8.03112676,6.47640845 8.10934859,6.53799296 8.14658451,6.58901408 C8.20568662,6.67610915 8.21588028,6.75390845 8.21588028,6.9102993 L8.21588028,7.25429577 L7.79371479,7.25429577 L7.79213028,7.03346831 C7.79213028,6.92809859 7.80221831,6.7765669 7.72605634,6.69232394 C7.66489437,6.63073944 7.57167254,6.61737676 7.42098592,6.61737676 L6.97167254,6.61737676 L6.97167254,7.25429577 L6.55315141,7.25429577 L6.55315141,5.50320423 L7.51584507,5.50320423 C7.72975352,5.50320423 7.88735915,5.50885563 8.02267606,5.58707746 C8.15508803,5.6652993 8.23447183,5.77948944 8.23447183,5.97480634 Z M8.90429577,7.25429577 L8.47721831,7.25429577 L8.47721831,5.50320423 L8.90429577,5.50320423 L8.90429577,7.25429577 Z M13.8589437,7.25429577 L13.2658099,7.25429577 L12.4724472,5.94 L12.4724472,7.25429577 L11.6200352,7.25429577 L11.4571479,6.86371479 L10.5876761,6.86371479 L10.4296479,7.25429577 L9.93987676,7.25429577 C9.73642606,7.25429577 9.47883803,7.20929577 9.33295775,7.0606162 C9.18586268,6.91193662 9.10933099,6.71054577 9.10933099,6.39211268 C9.10933099,6.13241197 9.15507042,5.895 9.33496479,5.70739437 C9.47028169,5.56764085 9.6821831,5.50320423 9.9706162,5.50320423 L10.3758275,5.50320423 L10.3758275,5.87841549 L9.97911972,5.87841549 C9.82637324,5.87841549 9.74012324,5.90112676 9.65704225,5.98214789 C9.58568662,6.05588028 9.53672535,6.19526408 9.53672535,6.37880282 C9.53672535,6.56640845 9.57401408,6.70167254 9.65181338,6.79003521 C9.71625,6.85933099 9.83334507,6.88035211 9.94352113,6.88035211 L10.1314965,6.88035211 L10.7214085,5.50325704 L11.3485563,5.50325704 L12.0572007,7.15954225 L12.0572007,5.50325704 L12.6944894,5.50325704 L13.4302289,6.7227993 L13.4302289,5.50325704 L13.8589437,5.50325704 L13.8589437,7.25429577 Z M0.03375,7.59823944 L0.748890845,7.59823944 L0.910140845,7.20929577 L1.27114437,7.20929577 L1.43197183,7.59823944 L2.8390669,7.59823944 L2.8390669,7.30088028 L2.96466549,7.59950704 L3.69512324,7.59950704 L3.82072183,7.29644366 L3.82072183,7.59823944 L7.31762324,7.59823944 L7.31598592,6.95978873 L7.38364437,6.95978873 C7.43102113,6.96142606 7.44485915,6.96580986 7.44485915,7.04403169 L7.44485915,7.59823944 L9.25346831,7.59823944 L9.25346831,7.44961268 C9.39934859,7.52778169 9.62625,7.59823944 9.92482394,7.59823944 L10.6857042,7.59823944 L10.8485387,7.20929577 L11.2095423,7.20929577 L11.3687852,7.59823944 L12.8350352,7.59823944 L12.8350352,7.22878521 L13.0570775,7.59823944 L14.2320423,7.59823944 L14.2320423,5.15598592 L13.0692254,5.15598592 L13.0692254,5.44441901 L12.9063908,5.15598592 L11.7132042,5.15598592 L11.7132042,5.44441901 L11.5636796,5.15598592 L9.95197183,5.15598592 C9.6821831,5.15598592 9.44503521,5.19364437 9.25346831,5.29859155 L9.25346831,5.15598592 L8.14125,5.15598592 L8.14125,5.29859155 C8.01934859,5.19042254 7.85323944,5.15598592 7.66853873,5.15598592 L3.60517606,5.15598592 L3.33253521,5.78677817 L3.05255282,5.15598592 L1.77269366,5.15598592 L1.77269366,5.44441901 L1.63209507,5.15598592 L0.540580986,5.15598592 L0.0336971831,6.31716549 L0.0336971831,7.59823944 L0.03375,7.59823944 Z" id="Shape" fill="#FFFFFF" fill-rule="nonzero"></path>
                    <path d="M14.9252113,8.88987676 L14.1623768,8.88987676 C14.0862148,8.88987676 14.0356162,8.89272887 13.992993,8.92151408 C13.948838,8.94987676 13.931831,8.99197183 13.931831,9.04753521 C13.931831,9.11360915 13.9691197,9.15855634 14.0233627,9.17799296 C14.0675176,9.19336268 14.1149472,9.19785211 14.1846655,9.19785211 L14.4115141,9.20392606 C14.6404225,9.20957746 14.7932218,9.24892606 14.8863908,9.34489437 C14.9033451,9.35825704 14.9135387,9.37325704 14.9252113,9.38825704 L14.9252113,8.88987676 Z M14.9252113,10.0446127 C14.8235387,10.1932923 14.6254225,10.268662 14.3572183,10.268662 L13.5489085,10.268662 L13.5489085,9.89308099 L14.3539437,9.89308099 C14.4338028,9.89308099 14.4896831,9.88257042 14.5233275,9.84971831 C14.5524824,9.82262324 14.5728169,9.78327465 14.5728169,9.73547535 C14.5728169,9.68445423 14.5524824,9.64394366 14.5216901,9.61964789 C14.4913204,9.59292254 14.4471127,9.58077465 14.3742254,9.58077465 C13.9812148,9.56741197 13.4909155,9.59292254 13.4909155,9.03866197 C13.4909155,8.78461268 13.6522183,8.5172007 14.0914437,8.5172007 L14.9251585,8.5172007 L14.9252113,8.16871479 L14.1505458,8.16871479 C13.9167782,8.16871479 13.7469718,8.2247007 13.6267077,8.31174296 L13.6267077,8.16871479 L12.4809507,8.16871479 C12.2977289,8.16871479 12.0826585,8.21413732 11.9809331,8.31174296 L11.9809331,8.16871479 L9.93491197,8.16871479 L9.93491197,8.31174296 C9.77207746,8.19427817 9.49732394,8.16871479 9.37051056,8.16871479 L8.0209331,8.16871479 L8.0209331,8.31174296 C7.89211268,8.18698944 7.6056338,8.16871479 7.43102113,8.16871479 L5.9206162,8.16871479 L5.57498239,8.54276408 L5.25126761,8.16871479 L2.99503521,8.16871479 L2.99503521,10.6126585 L5.20880282,10.6126585 L5.56494718,10.2326937 L5.90044014,10.6126585 L7.26501761,10.6138732 L7.26501761,10.0389613 L7.39917254,10.0389613 C7.58022887,10.0417606 7.79376761,10.0344718 7.98216549,9.95302817 L7.98216549,10.6126056 L9.10769366,10.6126056 L9.10769366,9.9756338 L9.16198944,9.9756338 C9.23128521,9.9756338 9.23809859,9.97848592 9.23809859,10.0477289 L9.23809859,10.6125528 L12.6572535,10.6125528 C12.874331,10.6125528 13.1012324,10.5569894 13.2268838,10.456162 L13.2268838,10.6125528 L14.3114261,10.6125528 C14.5371127,10.6125528 14.7575176,10.5809155 14.9252113,10.4998944 L14.9252113,10.0446127 Z M13.2556162,9.34489437 C13.3371127,9.42924296 13.3807923,9.53572183 13.3807923,9.71598592 C13.3807923,10.0927817 13.1453873,10.268662 12.7232746,10.268662 L11.9080458,10.268662 L11.9080458,9.89308099 L12.72,9.89308099 C12.7993838,9.89308099 12.8556866,9.88257042 12.8909683,9.84971831 C12.9197535,9.82262324 12.9404049,9.78327465 12.9404049,9.73547535 C12.9404049,9.68445423 12.9180634,9.64394366 12.889331,9.61964789 C12.8573239,9.59292254 12.813169,9.58077465 12.7402817,9.58077465 C12.3488556,9.56741197 11.858662,9.59292254 11.858662,9.03866197 C11.858662,8.78461268 12.0182746,8.5172007 12.4570775,8.5172007 L13.2961796,8.5172007 L13.2961796,8.88998239 L12.5283803,8.88998239 C12.4522711,8.88998239 12.4027817,8.89283451 12.3606866,8.92161972 C12.3148415,8.94998239 12.2978345,8.99207746 12.2978345,9.04764085 C12.2978345,9.11371479 12.3367606,9.15866197 12.389419,9.17809859 C12.4335739,9.19346831 12.4810035,9.19795775 12.5523063,9.19795775 L12.7776232,9.20403169 C13.0048415,9.20957746 13.1608099,9.24887324 13.2556162,9.34489437 Z M9.47878521,9.23672535 C9.4227993,9.26994718 9.35355634,9.2727993 9.27211268,9.2727993 L8.76364437,9.2727993 L8.76364437,8.87941901 L9.27903169,8.87941901 C9.35355634,8.87941901 9.4281338,8.88100352 9.47878521,8.91105634 C9.53302817,8.93941901 9.56545775,8.99366197 9.56545775,9.06860915 C9.56545775,9.14355634 9.53302817,9.20392606 9.47878521,9.23672535 Z M9.7315669,9.4547007 C9.82473592,9.48908451 9.90089789,9.55072183 9.93660211,9.60174296 C9.99570423,9.68725352 10.0042606,9.76705986 10.0059507,9.92144366 L10.0059507,10.268662 L9.58573944,10.268662 L9.58573944,10.0495246 C9.58573944,9.94415493 9.59588028,9.7881338 9.51808099,9.70669014 C9.45691901,9.64394366 9.36369718,9.62894366 9.21100352,9.62894366 L8.76369718,9.62894366 L8.76369718,10.268662 L8.3431162,10.268662 L8.3431162,8.51714789 L9.30945423,8.51714789 C9.52135563,8.51714789 9.67568662,8.52649648 9.81306338,8.59980634 C9.94515845,8.67961268 10.0282394,8.78894366 10.0282394,8.98875 C10.0281866,9.26830986 9.84174296,9.41096831 9.7315669,9.4547007 Z M10.2603169,8.51714789 L11.6572711,8.51714789 L11.6572711,8.8793662 L10.6771479,8.8793662 L10.6771479,9.1977993 L11.6333451,9.1977993 L11.6333451,9.55515845 L10.6771479,9.55515845 L10.6771479,9.90364437 L11.6572711,9.90522887 L11.6572711,10.268662 L10.2603169,10.268662 L10.2603169,8.51714789 Z M7.43635563,9.32545775 L6.89545775,9.32545775 L6.89545775,8.87941901 L7.44121479,8.87941901 C7.59232394,8.87941901 7.69721831,8.94100352 7.69721831,9.09417254 C7.69721831,9.24565141 7.5971831,9.32545775 7.43635563,9.32545775 Z M6.47857394,10.1093662 L5.8359507,9.39591549 L6.47857394,8.70512324 L6.47857394,10.1093662 Z M4.81901408,9.90364437 L3.78992958,9.90364437 L3.78992958,9.55515845 L4.70883803,9.55515845 L4.70883803,9.1977993 L3.78992958,9.1977993 L3.78992958,8.8793662 L4.83929577,8.8793662 L5.29711268,9.38978873 L4.81901408,9.90364437 Z M8.14658451,9.09417254 C8.14658451,9.58072183 7.78357394,9.68117958 7.41771127,9.68117958 L6.89545775,9.68117958 L6.89545775,10.268662 L6.08191901,10.268662 L5.56653169,9.68883803 L5.03091549,10.268662 L3.37299296,10.268662 L3.37299296,8.51714789 L5.05642606,8.51714789 L5.57139085,9.09126761 L6.10378521,8.51714789 L7.44121479,8.51714789 C7.77338028,8.51714789 8.14658451,8.60910211 8.14658451,9.09417254 Z" id="Shape" fill="#FFFFFF" fill-rule="nonzero"></path>
                </g>
            </g>
        </g>
    </g>
</svg>