<?xml version="1.0" encoding="UTF-8"?>
<svg width="28px" height="17px" viewBox="0 0 28 17" version="1.1" xmlns="http://www.w3.org/2000/svg" xmlns:xlink="http://www.w3.org/1999/xlink">
    <!-- Generator: Sketch 52.6 (67491) - http://www.bohemiancoding.com/sketch -->
    <title>ELOMiniLogo</title>
    <desc>Created with Sketch.</desc>
    <defs>
        <rect id="path-1" x="0" y="0" width="28" height="17" rx="2"></rect>
    </defs>
    <g id="Symbols" stroke="none" stroke-width="1" fill="none" fill-rule="evenodd">
        <g id="ELOMiniLogo">
            <g>
                <mask id="mask-2" fill="white">
                    <use xlink:href="#path-1"></use>
                </mask>
                <use id="Base" fill="#FFFFFF" xlink:href="#path-1"></use>
                <g id="elo-seeklogo.com" mask="url(#mask-2)">
                    <g transform="translate(2.000000, 4.000000)">
                        <path d="M3.74277779,2.0332034 C4.01233657,1.94317039 4.30051666,1.89471416 4.60046263,1.89471416 C5.9088048,1.89471416 7.00107494,2.82395478 7.25128004,4.05921641 L9.10585933,3.68095528 C8.68027054,1.58184972 6.82513897,0.00209984992 4.60046263,0.00209984992 C4.09071176,0.00209984992 3.60102291,0.0851453727 3.14278979,0.238197899 L3.74277779,2.0332034 Z" id="Fill-1" fill="#F9C623"></path>
                        <path d="M1.55410865,8.043597 L2.80824372,6.62565203 C2.24837979,6.12964802 1.89522321,5.40581811 1.89522321,4.59942291 C1.89522321,3.79361601 2.24795958,3.07014627 2.80747534,2.57470655 L1.55304012,1.15666553 C0.602344772,1.99897069 0.00236878439,3.22935788 0.00236878439,4.59942291 C0.00236878439,5.97042441 0.602584892,7.20118379 1.55410865,8.043597" id="Fill-3" fill="#009ACB"></path>
                        <path d="M7.25073497,5.14223592 C6.99953337,6.37676518 5.90833177,7.30424092 4.60046983,7.30424092 C4.30027174,7.30424092 4.01134727,7.25591676 3.74194457,7.16529545 L3.1412002,8.9609973 C3.59942131,9.11395378 4.09011866,9.19674717 4.60046983,9.19674717 C6.82302111,9.19674717 8.67778049,7.61961461 9.10509815,5.522406 L7.25073497,5.14223592 Z" id="Fill-5" fill="#DC3E2A"></path>
                        <path d="M14.433654,6.12608344 C14.4330417,6.12657569 14.4326935,6.12704392 14.4321653,6.12752416 L14.3793989,6.09197439 C14.227523,6.33850565 13.9905845,6.53811746 13.6914189,6.66784232 C13.1223944,6.91532206 12.5951148,6.85170225 12.2164334,6.51952016 L12.181604,6.57247864 C12.1812078,6.57189035 12.1810757,6.57142211 12.1805355,6.57142211 L11.5347686,7.53750915 C11.6950607,7.64897289 11.8671908,7.74326803 12.0479772,7.81873777 C12.7613259,8.1150099 13.4912668,8.1014071 14.2102823,7.78866273 C14.7304304,7.56333407 15.1384184,7.21953017 15.4174019,6.78394037 L14.433654,6.12608344 Z M12.417642,3.74243562 C11.8167296,4.00069675 11.5069387,4.56435458 11.5706785,5.22529705 L14.1162273,4.12970125 C13.6784884,3.61532806 13.1087796,3.44484282 12.417642,3.74243562 Z M10.727557,6.68549115 C10.6667826,6.58706593 10.5842533,6.4295952 10.5344524,6.31376128 C10.2407736,5.63197639 10.2266785,4.9263956 10.4747466,4.2489929 C10.7474509,3.50621751 11.2683434,2.93745713 11.9413519,2.64792036 C12.787571,2.28375428 13.7233909,2.35555018 14.5344564,2.83675078 C15.049682,3.13233857 15.4148086,3.58866273 15.6922313,4.23394937 C15.727541,4.31651466 15.7585645,4.40478279 15.7889157,4.47977229 L10.727557,6.68549115 Z" id="Fill-7" fill="#1A1919"></path>
                        <path d="M17.5580878,1.22501931 L17.5580878,6.59628894 L18.3931534,6.93476218 L17.9187002,8.04193177 L16.9969153,7.65809985 C16.7900758,7.56853507 16.6492094,7.43147454 16.5425961,7.27664512 C16.4407012,7.11883822 16.364415,6.902406 16.364415,6.61096028 L16.364415,1.22501931 L17.5580878,1.22501931 Z" id="Fill-9" fill="#1A1919"></path>
                        <path d="M19.7214075,5.228002 C19.7219478,4.7705973 19.9237807,4.36047224 20.2434165,4.08171686 L19.3867162,3.12641121 C18.8056616,3.64007604 18.4396466,4.39055928 18.4389983,5.22671736 C18.4380378,6.06318759 18.8035366,6.81452326 19.3840028,7.32947274 L20.2397427,6.3732066 C19.9217277,6.09327464 19.7210593,5.68433817 19.7214075,5.228002" id="Fill-11" fill="#1A1919"></path>
                        <path d="M21.2436966,6.75243542 C21.0750123,6.75194317 20.9125951,6.72411326 20.7610673,6.67365203 L20.3518667,7.89018429 C20.6314625,7.98411926 20.9309883,8.03518079 21.2424,8.03567304 C22.5989583,8.03695768 23.7317247,7.07441241 23.9941279,5.79486063 L22.736487,5.53802821 C22.5934475,6.2317951 21.9793765,6.75302371 21.2436966,6.75243542" id="Fill-13" fill="#1A1919"></path>
                        <path d="M21.2473777,2.42295308 C20.9363982,2.4226049 20.6370285,2.47318619 20.3576848,2.56618469 L20.7631996,3.78377349 C20.9151956,3.73355238 21.0775888,3.70584252 21.246057,3.70584252 C21.9835138,3.70653887 22.598005,4.23086503 22.7376708,4.9263968 L23.9954317,4.67132926 C23.7367024,3.3900006 22.6049805,2.42390155 21.2473777,2.42295308" id="Fill-15" fill="#1A1919"></path>
                    </g>
                </g>
            </g>
        </g>
    </g>
</svg>