<?xml version="1.0" encoding="UTF-8"?>
<svg width="28px" height="17px" viewBox="0 0 28 17" version="1.1" xmlns="http://www.w3.org/2000/svg" xmlns:xlink="http://www.w3.org/1999/xlink">
    <!-- Generator: Sketch 52.6 (67491) - http://www.bohemiancoding.com/sketch -->
    <title>JCBMiniLogo</title>
    <desc>Created with Sketch.</desc>
    <defs>
        <rect id="path-1" x="0" y="0" width="28" height="17" rx="2"></rect>
        <linearGradient x1="-57.5270968%" y1="50.1241953%" x2="232.39121%" y2="50.1241953%" id="linearGradient-3">
            <stop stop-color="#007940" offset="0%"></stop>
            <stop stop-color="#00873F" offset="22.85%"></stop>
            <stop stop-color="#40A737" offset="74.33%"></stop>
            <stop stop-color="#5CB531" offset="100%"></stop>
        </linearGradient>
        <linearGradient x1="0.182516704%" y1="49.95997%" x2="100.273441%" y2="49.95997%" id="linearGradient-4">
            <stop stop-color="#007940" offset="0%"></stop>
            <stop stop-color="#00873F" offset="22.85%"></stop>
            <stop stop-color="#40A737" offset="74.33%"></stop>
            <stop stop-color="#5CB531" offset="100%"></stop>
        </linearGradient>
        <linearGradient x1="-62.8015845%" y1="49.8578253%" x2="253.671294%" y2="49.8578253%" id="linearGradient-5">
            <stop stop-color="#007940" offset="0%"></stop>
            <stop stop-color="#00873F" offset="22.85%"></stop>
            <stop stop-color="#40A737" offset="74.33%"></stop>
            <stop stop-color="#5CB531" offset="100%"></stop>
        </linearGradient>
        <linearGradient x1="0.175556793%" y1="50.0058048%" x2="101.808162%" y2="50.0058048%" id="linearGradient-6">
            <stop stop-color="#1F286F" offset="0%"></stop>
            <stop stop-color="#004E94" offset="47.51%"></stop>
            <stop stop-color="#0066B1" offset="82.61%"></stop>
            <stop stop-color="#006FBC" offset="100%"></stop>
        </linearGradient>
        <linearGradient x1="-0.575855512%" y1="49.9142191%" x2="98.13299%" y2="49.9142191%" id="linearGradient-7">
            <stop stop-color="#6C2C2F" offset="0%"></stop>
            <stop stop-color="#882730" offset="17.35%"></stop>
            <stop stop-color="#BE1833" offset="57.31%"></stop>
            <stop stop-color="#DC0436" offset="85.85%"></stop>
            <stop stop-color="#E60039" offset="100%"></stop>
        </linearGradient>
    </defs>
    <g id="JCBMiniLogo" stroke="none" stroke-width="1" fill="none" fill-rule="evenodd">
        <g>
            <mask id="mask-2" fill="white">
                <use xlink:href="#path-1"></use>
            </mask>
            <use id="Base" fill="#FFFFFF" xlink:href="#path-1"></use>
            <g id="JCB_logo" mask="url(#mask-2)">
                <g transform="translate(5.000000, 1.500000)">
                    <path d="M17.948718,11.1428333 C17.948718,12.6685475 16.7063508,13.9109148 15.1806366,13.9109148 L0.119658117,13.9109148 L0.119658117,2.94756863 C0.119658117,1.42185446 1.36202537,0.179487205 2.88773954,0.179487205 L17.948718,0.179487205 L17.948718,11.1428333 Z" id="path6325" fill="#FFFFFF"></path>
                    <g id="g6327" stroke-width="1" fill="none" transform="translate(12.063820, 1.084018)">
                        <path d="M0.980816254,7.24714232 L2.12510188,7.24714232 C2.15779576,7.24714232 2.23408147,7.23624436 2.26677534,7.23624436 C2.48473451,7.19265253 2.6699998,6.99648928 2.6699998,6.72404032 C2.6699998,6.46248932 2.48473451,6.26632607 2.26677534,6.21183627 C2.23408147,6.20093832 2.16869372,6.20093832 2.12510188,6.20093832 L0.980816254,6.20093832 L0.980816254,7.24714232 Z" id="path6338" fill="url(#linearGradient-3)"></path>
                        <path d="M1.99432638,0.0217959168 C0.904530545,0.0217959168 0.0108979584,0.904530545 0.0108979584,2.00522434 L0.0108979584,4.06493847 L2.81167326,4.06493847 C2.87706101,4.06493847 2.95334672,4.06493847 3.00783651,4.07583643 C3.6399181,4.10853031 4.10853031,4.43546906 4.10853031,5.00216289 C4.10853031,5.44897919 3.79248951,5.83040773 3.20399976,5.90669344 L3.20399976,5.92848936 C3.84697931,5.97208119 4.33738743,6.33171382 4.33738743,6.88750969 C4.33738743,7.4868974 3.79248951,7.87922391 3.07322426,7.87922391 L2.58852978e-14,7.87922391 L2.58852978e-14,11.9114685 L2.90975489,11.9114685 C3.99955072,11.9114685 4.89318331,11.0287339 4.89318331,9.92804008 L4.89318331,0.0217959168 L1.99432638,0.0217959168 Z" id="path6349" fill="url(#linearGradient-4)"></path>
                        <path d="M2.52832634,5.1329384 C2.52832634,4.87138739 2.34306105,4.69702006 2.12510188,4.66432618 C2.10330597,4.66432618 2.04881617,4.65342823 2.0161223,4.65342823 L0.980816254,4.65342823 L0.980816254,5.61244856 L2.0161223,5.61244856 C2.04881617,5.61244856 2.11420392,5.61244856 2.12510188,5.60155061 C2.34306105,5.56885673 2.52832634,5.3944894 2.52832634,5.1329384 Z" id="path6360" fill="url(#linearGradient-5)"></path>
                    </g>
                    <path d="M3.09480075,1.10581367 C2.00500492,1.10581367 1.11137233,1.9885483 1.11137233,3.08924209 L1.11137233,7.9824254 C1.66716821,8.25487436 2.24476,8.4292417 2.82235179,8.4292417 C3.50892317,8.4292417 3.87945376,8.01511928 3.87945376,7.44842544 L3.87945376,5.13805827 L5.57953526,5.13805827 L5.57953526,7.43752748 C5.57953526,8.33116007 5.02373939,9.06132328 3.13839259,9.06132328 C1.99410696,9.06132328 1.10047437,8.81067024 1.10047437,8.81067024 L1.10047437,12.9845883 L4.01022926,12.9845883 C5.1000251,12.9845883 5.99365768,12.1018537 5.99365768,11.0011599 L5.99365768,1.10581367 L3.09480075,1.10581367 Z" id="path6371" fill="url(#linearGradient-6)"></path>
                    <path d="M8.57647382,1.10581367 C7.48667798,1.10581367 6.59304539,1.9885483 6.59304539,3.08924209 L6.59304539,5.68295619 C7.09435148,5.25793581 7.96618815,4.98548685 9.37202478,5.0508746 C10.1239839,5.08356847 10.9304328,5.29062968 10.9304328,5.29062968 L10.9304328,6.12977248 C10.5272084,5.92271127 10.0476982,5.73744598 9.42651457,5.69385414 C8.35851465,5.61756843 7.71553511,6.14067044 7.71553511,7.05609894 C7.71553511,7.9824254 8.35851465,8.5055274 9.42651457,8.41834374 C10.0476982,8.3747519 10.5272084,8.17858865 10.9304328,7.9824254 L10.9304328,8.8215682 C10.9304328,8.8215682 10.1348819,9.02862941 9.37202478,9.06132328 C7.96618815,9.12671103 7.09435148,8.85426207 6.59304539,8.4292417 L6.59304539,13.0063842 L9.50280028,13.0063842 C10.5925961,13.0063842 11.4862287,12.1236496 11.4862287,11.0229558 L11.4862287,1.10581367 L8.57647382,1.10581367 Z" id="path6384" fill="url(#linearGradient-7)"></path>
                </g>
            </g>
        </g>
    </g>
</svg>