<?xml version="1.0" encoding="UTF-8"?>
<svg width="28px" height="17px" viewBox="0 0 28 17" version="1.1" xmlns="http://www.w3.org/2000/svg" xmlns:xlink="http://www.w3.org/1999/xlink">
    <!-- Generator: Sketch 52.6 (67491) - http://www.bohemiancoding.com/sketch -->
    <title>MaestroMiniLogo</title>
    <desc>Created with Sketch.</desc>
    <defs>
        <rect id="path-1" x="0" y="0" width="28" height="17" rx="2"></rect>
    </defs>
    <g id="MaestroMiniLogo" stroke="none" stroke-width="1" fill="none" fill-rule="evenodd">
        <g>
            <mask id="mask-2" fill="white">
                <use xlink:href="#path-1"></use>
            </mask>
            <use id="Base" fill="#FFFFFF" xlink:href="#path-1"></use>
            <g id="ms_vrt_pos" mask="url(#mask-2)">
                <g transform="translate(4.000000, 0.000000)">
                    <rect id="Rectangle" fill="none" x="0" y="0" width="20.6219835" height="16.9494215"></rect>
                    <path d="M7.07958678,14.7857851 L7.07958678,13.9428099 C7.08952847,13.7997635 7.03742319,13.6593582 6.93656945,13.5574287 C6.83571571,13.4554992 6.69587107,13.4019071 6.55272727,13.4103306 C6.36359653,13.3979315 6.18270745,13.4894528 6.08066116,13.6491736 C5.98762422,13.494215 5.81727051,13.402569 5.63669421,13.4103306 C5.47946773,13.4023823 5.32978964,13.4782905 5.24330579,13.6098347 L5.24330579,13.4440496 L4.95107438,13.4440496 L4.95107438,14.7857851 L5.2461157,14.7857851 L5.2461157,14.042562 C5.23287776,13.9494605 5.26215866,13.8553363 5.32587484,13.7861743 C5.38959103,13.7170123 5.48100348,13.6801274 5.57487603,13.6857025 C5.76876033,13.6857025 5.86710744,13.8121488 5.86710744,14.0397521 L5.86710744,14.7857851 L6.16214876,14.7857851 L6.16214876,14.042562 C6.14996349,13.9496721 6.17960835,13.8561624 6.24308584,13.7872595 C6.30656333,13.7183566 6.39733366,13.6811592 6.49090909,13.6857025 C6.69041322,13.6857025 6.78595041,13.8121488 6.78595041,14.0397521 L6.78595041,14.7857851 L7.07958678,14.7857851 Z M8.72338843,14.1156198 L8.72338843,13.4454545 L8.42834711,13.4454545 L8.42834711,13.6084298 C8.32781737,13.4786987 8.17086223,13.405453 8.0068595,13.4117355 C7.61889088,13.4117355 7.30438017,13.7262463 7.30438017,14.1142149 C7.30438017,14.5021835 7.61889088,14.8166942 8.0068595,14.8166942 C8.17086223,14.8229767 8.32781737,14.749731 8.42834711,14.62 L8.42834711,14.7829752 L8.72057851,14.7829752 L8.72338843,14.1156198 Z M7.63735537,14.1156198 C7.65035054,13.8951353 7.83720258,13.725478 8.05791437,13.7337623 C8.27862616,13.7420465 8.45223453,13.9252332 8.44866505,14.1460716 C8.44509557,14.36691 8.26565762,14.5443903 8.04479339,14.5455372 C7.93171601,14.5481892 7.82275758,14.5030598 7.74467164,14.42123 C7.66658571,14.3394002 7.62660468,14.2284492 7.63454545,14.1156198 L7.63735537,14.1156198 Z M14.9670248,13.4131405 C15.0632328,13.4128919 15.1586039,13.4310124 15.2480165,13.4665289 C15.3333623,13.5007071 15.4111693,13.5513055 15.4770248,13.6154545 C15.5420291,13.6790244 15.5936248,13.7549849 15.6287603,13.838843 C15.7021635,14.0189802 15.7021635,14.2206893 15.6287603,14.4008264 C15.5936585,14.4847028 15.5420585,14.5606696 15.4770248,14.6242149 C15.4111693,14.6883639 15.3333623,14.7389623 15.2480165,14.7731405 C15.062753,14.845129 14.857247,14.845129 14.6719835,14.7731405 C14.5870358,14.7389962 14.5096829,14.6883826 14.4443802,14.6242149 C14.3799971,14.5604206 14.3289017,14.4844938 14.2940496,14.4008264 C14.2207956,14.2206601 14.2207956,14.0190094 14.2940496,13.838843 C14.3289017,13.7551756 14.3799971,13.6792488 14.4443802,13.6154545 C14.5096829,13.5512868 14.5870358,13.5006732 14.6719835,13.4665289 C14.7646092,13.4281353 14.863948,13.4085541 14.9642149,13.4089256 L14.9670248,13.4131405 Z M14.9670248,13.6941322 C14.9098054,13.6933518 14.852993,13.7038549 14.7998347,13.7250413 C14.7497644,13.7451168 14.7043395,13.7752406 14.6663636,13.8135537 C14.6276222,13.853887 14.5975054,13.9016914 14.5778512,13.9540496 C14.5349306,14.0662275 14.5349306,14.1903014 14.5778512,14.3024793 C14.5974699,14.3548552 14.627591,14.4026664 14.6663636,14.4429752 C14.7043141,14.4813193 14.7497457,14.5114477 14.7998347,14.5314876 C14.9068698,14.5733995 15.0257748,14.5733995 15.1328099,14.5314876 C15.1852939,14.5120876 15.2331475,14.4819398 15.2733058,14.4429752 C15.3121415,14.4027158 15.3422713,14.3548908 15.3618182,14.3024793 C15.4047388,14.1903014 15.4047388,14.0662275 15.3618182,13.9540496 C15.3422713,13.9016382 15.3121415,13.8538131 15.2733058,13.8135537 C15.2331475,13.7745891 15.1852939,13.7444413 15.1328099,13.7250413 C15.0798102,13.7007787 15.0224794,13.6874015 14.9642149,13.6857025 L14.9670248,13.6941322 Z M10.3109917,14.1156198 C10.3109917,13.6941322 10.0496694,13.4131405 9.67454545,13.4131405 C9.28657685,13.4185721 8.97646932,13.7374859 8.98190088,14.1254545 C8.98733244,14.5134232 9.30624627,14.8235307 9.69421488,14.8180992 C9.89423386,14.8249332 10.089773,14.7579198 10.2435537,14.6298347 L10.1030579,14.4134711 C9.99211698,14.5024441 9.85467547,14.5518835 9.71247934,14.5539669 C9.51162172,14.5712409 9.33350302,14.4255074 9.31066116,14.2252066 L10.3067769,14.2252066 C10.3109917,14.1900826 10.3109917,14.1549587 10.3109917,14.1156198 Z M9.31206612,13.9976033 C9.32334315,13.8122541 9.47906445,13.6689409 9.66471074,13.6730579 C9.75302687,13.671175 9.83847181,13.7044629 9.90223853,13.7655946 C9.96600525,13.8267263 10.0028672,13.9106913 10.0047107,13.9990083 L9.31206612,13.9976033 Z M11.5403306,13.7868595 C11.4120254,13.7129805 11.2668888,13.6733099 11.118843,13.6716529 C10.9586777,13.6716529 10.8631405,13.7306612 10.8631405,13.8290083 C10.8631405,13.9273554 10.9642975,13.9442149 11.0907438,13.9610744 L11.2312397,13.9807438 C11.5234711,14.0228926 11.7004959,14.1465289 11.7004959,14.382562 C11.7004959,14.618595 11.4757025,14.8209091 11.0893388,14.8209091 C10.8822647,14.8264174 10.6788846,14.7653541 10.5090909,14.6466942 L10.6495868,14.4190909 C10.7785203,14.5147447 10.9358896,14.5642319 11.0963636,14.5595868 C11.2958678,14.5595868 11.4026446,14.5005785 11.4026446,14.3966116 C11.4026446,14.3207438 11.3267769,14.278595 11.1666116,14.2561157 L11.0261157,14.2364463 C10.7254545,14.1942975 10.5624793,14.0594215 10.5624793,13.8402479 C10.5624793,13.5733058 10.7816529,13.4103306 11.1244628,13.4103306 C11.3163297,13.4039022 11.506012,13.4526637 11.6709917,13.5508264 L11.5403306,13.7868595 Z M12.9452893,13.7109917 L12.4690083,13.7109917 L12.4690083,14.3165289 C12.4690083,14.4570248 12.5167769,14.5413223 12.6628926,14.5413223 C12.7540928,14.538302 12.8430368,14.5121989 12.921405,14.4654545 L13.0057025,14.7155372 C12.8961589,14.7838994 12.7695371,14.8199379 12.6404132,14.8195041 C12.2947934,14.8195041 12.1739669,14.6340496 12.1739669,14.3221488 L12.1739669,13.7109917 L11.901405,13.7109917 L11.901405,13.4440496 L12.1739669,13.4440496 L12.1739669,13.0366116 L12.4690083,13.0366116 L12.4690083,13.4440496 L12.9452893,13.4440496 L12.9452893,13.7109917 Z M13.9554545,13.4103306 C14.0263379,13.4106045 14.096656,13.4229577 14.1633884,13.4468595 L14.0734711,13.7278512 C14.0154024,13.7046992 13.9533339,13.6932404 13.8908264,13.6941322 C13.6997521,13.6941322 13.6098347,13.8177686 13.6098347,14.0397521 L13.6098347,14.791405 L13.3176033,14.791405 L13.3176033,13.4496694 L13.6070248,13.4496694 L13.6070248,13.6126446 C13.6800803,13.4871542 13.8159305,13.4116818 13.9610744,13.4159504 L13.9554545,13.4103306 Z M15.9757851,14.5904959 C15.9940514,14.5902721 16.012186,14.5936127 16.0291736,14.6003306 C16.0453085,14.6069148 16.0600777,14.6164433 16.0727273,14.6284298 C16.0850725,14.6405435 16.0950749,14.6548326 16.1022314,14.6705785 C16.1166127,14.7037422 16.1166127,14.7413818 16.1022314,14.7745455 C16.0950749,14.7902913 16.0850725,14.8045805 16.0727273,14.8166942 C16.0600777,14.8286807 16.0453085,14.8382092 16.0291736,14.8447934 C16.0123537,14.8522151 15.9941696,14.8560434 15.9757851,14.8560331 C15.9214202,14.8556233 15.8721712,14.823885 15.8493388,14.7745455 C15.835124,14.7413474 15.835124,14.7037765 15.8493388,14.6705785 C15.8564953,14.6548326 15.8664977,14.6405435 15.878843,14.6284298 C15.8914926,14.6164433 15.9062618,14.6069148 15.9223967,14.6003306 C15.9371828,14.5944504 15.9528604,14.5911249 15.9687603,14.5904959 L15.9757851,14.5904959 Z M15.9757851,14.8279339 C15.9898079,14.8280191 16.0036912,14.8251467 16.0165289,14.8195041 C16.0286167,14.8141073 16.0395793,14.8064812 16.048843,14.7970248 C16.0730352,14.7726598 16.0836378,14.7379218 16.0771745,14.7042003 C16.0707112,14.6704788 16.0480156,14.6421229 16.0165289,14.6284298 C16.0036785,14.622827 15.9898038,14.6199563 15.9757851,14.62 C15.9617786,14.620074 15.9479273,14.6229398 15.9350413,14.6284298 C15.9224184,14.6336056 15.910955,14.6412479 15.9013223,14.6509091 C15.8648922,14.6906564 15.8648922,14.7516577 15.9013223,14.791405 C15.9209754,14.8113043 15.9478171,14.8224461 15.9757851,14.822314 L15.9757851,14.8279339 Z M15.9842149,14.6607438 C15.9973304,14.6601078 16.0102545,14.6640844 16.0207438,14.6719835 C16.0294689,14.6792044 16.0341768,14.6901895 16.0333884,14.7014876 C16.0337963,14.7109226 16.0302287,14.7200963 16.0235537,14.7267769 C16.0154103,14.7341734 16.0050218,14.7386256 15.9940496,14.7394215 L16.0347934,14.7857851 L16.0024793,14.7857851 L15.9645455,14.7394215 L15.9519008,14.7394215 L15.9519008,14.7857851 L15.9252066,14.7857851 L15.9252066,14.6565289 L15.9842149,14.6607438 Z M15.9533058,14.6846281 L15.9533058,14.7183471 L15.9842149,14.7183471 C15.9897151,14.719987 15.9955742,14.719987 16.0010744,14.7183471 C16.0030783,14.7143704 16.0030783,14.7096792 16.0010744,14.7057025 C16.0030783,14.7017258 16.0030783,14.6970346 16.0010744,14.6930579 C15.9955742,14.691418 15.9897151,14.691418 15.9842149,14.6930579 L15.9533058,14.6846281 Z" id="Shape" fill="#000000" fill-rule="nonzero"></path>
                    <g id="_Group_" stroke-width="1" fill="none" fill-rule="evenodd" transform="translate(2.107438, 2.107438)">
                        <rect id="Rectangle" fill="#7673C0" x="5.9907438" y="1.10008264" width="4.42561983" height="7.95347107"></rect>
                        <path d="M6.27173554,5.07752066 C6.27008087,3.52525098 6.98248219,2.05848142 8.20355372,1.10008264 C6.12980525,-0.529662146 3.15181929,-0.292275724 1.36244433,1.64541311 C-0.426930628,3.58310195 -0.426930628,6.57053441 1.36244433,8.50822325 C3.15181929,10.4459121 6.12980525,10.6832985 8.20355372,9.05355372 C6.98287065,8.09545919 6.27051285,6.62929731 6.27173554,5.07752066 Z" id="_Path_" fill="#EB001B"></path>
                        <path d="M16.3860331,5.07752066 C16.3855653,7.01350708 15.2800302,8.77937827 13.5387356,9.62550872 C11.797441,10.4716392 9.72592192,10.2495632 8.20355372,9.05355372 C9.42370417,8.09464579 10.1361156,6.62867885 10.1361156,5.07681818 C10.1361156,3.52495752 9.42370417,2.05899057 8.20355372,1.10008264 C9.72590931,-0.0967868763 11.7980126,-0.319366415 13.5398334,0.526874413 C15.2816542,1.37311524 16.3873929,3.13960772 16.387438,5.0761157 L16.3860331,5.07752066 Z" id="Path" fill="#00A1DF"></path>
                    </g>
                </g>
            </g>
        </g>
    </g>
</svg>