<?xml version="1.0" encoding="UTF-8"?>
<svg width="28px" height="17px" viewBox="0 0 28 17" version="1.1" xmlns="http://www.w3.org/2000/svg" xmlns:xlink="http://www.w3.org/1999/xlink">
    <!-- Generator: Sketch 52.6 (67491) - http://www.bohemiancoding.com/sketch -->
    <title>MIRMiniLogo</title>
    <desc>Created with Sketch.</desc>
    <defs>
        <rect id="path-1" x="0" y="0" width="28" height="17" rx="2"></rect>
        <linearGradient x1="3.061617e-15%" y1="50%" x2="100%" y2="50%" id="linearGradient-3">
            <stop stop-color="#00A0E5" offset="0%"></stop>
            <stop stop-color="#0077C3" offset="100%"></stop>
        </linearGradient>
    </defs>
    <g id="MIRMiniLogo" stroke="none" stroke-width="1" fill="none" fill-rule="evenodd">
        <g>
            <mask id="mask-2" fill="white">
                <use xlink:href="#path-1"></use>
            </mask>
            <use id="Base" fill="#FFFFFF" xlink:href="#path-1"></use>
            <g id="Mir-logo" mask="url(#mask-2)">
                <g transform="translate(2.000000, 5.000000)" id="Combined-Shape">
                    <path d="M17.3103448,3.06896552 L17.3103448,6.79310345 L19.3793103,6.79310345 L19.3793103,4.5862069 L21.7241379,4.5862069 C22.7110194,4.57887938 23.5493371,3.94847441 23.865451,3.06896552 L17.3103448,3.06896552 Z" fill="#37A72E"></path>
                    <path d="M17.0344828,0 C17.1549972,1.52222197 18.5951009,2.72413793 20.3539072,2.72413793 C20.3596577,2.72413793 23.9514008,2.72413793 23.9514008,2.72413793 C23.9779465,2.58453124 23.9918382,2.44044008 23.9918382,2.29310345 C23.9918382,1.03213229 22.9744857,0.00932842155 21.7159761,6.3446e-05 L17.0344828,0 Z" fill="url(#linearGradient-3)"></path>
                    <path d="M13.9724066,2.68791471 L13.9740266,2.6844406 L13.9742431,2.68449355 C13.9954493,2.64643397 14.0360975,2.62068966 14.0827586,2.62068966 C14.1501611,2.62068966 14.2050169,2.67440799 14.2068493,2.74136775 L14.2068966,2.74137931 L14.2068966,6.75862069 L16.2758621,6.75862069 L16.2758621,0 L14.2068966,0 C13.9445246,0.00873280221 13.6480989,0.20126162 13.5378946,0.437595341 L11.8913963,3.96852248 C11.8873293,3.98295593 11.8809722,3.99642959 11.8727421,4.00852645 L11.8721929,4.00970431 L11.8719784,4.00963724 C11.8470697,4.0454921 11.8055864,4.06896552 11.7586207,4.06896552 C11.6824435,4.06896552 11.6206897,4.00721169 11.6206897,3.93103448 L11.6206897,0 L9.55172414,0 L9.55172414,6.75862069 L11.6206897,6.75862069 L11.6206897,6.75784897 C11.8801853,6.74429614 12.1696527,6.55393272 12.2782592,6.32102534 L13.9681606,2.69702021 C13.9694557,2.69391926 13.970873,2.69088209 13.9724066,2.68791471 Z" fill="#37A72E"></path>
                    <path d="M6.24666359,2.80344434 L5.03744483,6.75862069 L3.54907634,6.75862069 L2.33912357,2.80104352 C2.32745624,2.73766903 2.27192145,2.68965517 2.20517241,2.68965517 C2.12994742,2.68965517 2.06896552,2.75063708 2.06896552,2.82586207 C2.06896552,2.82643691 2.06896908,2.82701091 2.06897618,2.82758406 L2.06896552,6.75862069 L0,6.75862069 L0,0 L1.77586207,0 L2.30474898,0 C2.68544602,0 3.08438759,0.29544184 3.19563626,0.659319841 L4.20254872,3.95278214 C4.25264752,4.11664786 4.33392752,4.11647176 4.38397245,3.95278214 L5.3908849,0.659319841 C5.50221131,0.295187549 5.90102779,9.80058945e-16 6.28177217,9.80058945e-16 L6.81050197,0 L8.5862069,0 L8.5862069,6.75862069 L6.51724138,6.75862069 L6.51724138,2.82758621 C6.51723783,2.82701091 6.51724138,2.82643691 6.51724138,2.82586207 C6.51724138,2.75063708 6.45625948,2.68965517 6.38103448,2.68965517 C6.3134451,2.68965517 6.2573541,2.73888559 6.24666359,2.80344434 Z" fill="#37A72E"></path>
                </g>
            </g>
        </g>
    </g>
</svg>