<?xml version="1.0" encoding="UTF-8"?>
<svg width="28px" height="17px" viewBox="0 0 28 17" version="1.1" xmlns="http://www.w3.org/2000/svg" xmlns:xlink="http://www.w3.org/1999/xlink">
    <!-- Generator: Sketch 52.6 (67491) - http://www.bohemiancoding.com/sketch -->
    <title>UnionPayMiniLogo</title>
    <desc>Created with Sketch.</desc>
    <defs>
        <rect id="path-1" x="0" y="0" width="28" height="17" rx="2"></rect>
    </defs>
    <g id="UnionPayMiniLogo" stroke="none" stroke-width="1" fill="none" fill-rule="evenodd">
        <g>
            <mask id="mask-2" fill="white">
                <use xlink:href="#path-1"></use>
            </mask>
            <use id="Base" fill="#FFFFFF" xlink:href="#path-1"></use>
            <g id="UnionPay_logo" mask="url(#mask-2)">
                <g transform="translate(3.000000, 1.500000)">
                    <path d="M4.37864271,5.84117892e-05 L9.95926846,5.84117892e-05 C10.7382736,5.84117892e-05 11.2227883,0.635014927 11.0410613,1.4166045 L8.44288126,12.5715989 C8.25952194,13.350468 7.47956466,13.9859686 6.70001544,13.9859686 L1.11993379,13.9859686 C0.34201685,13.9859686 -0.143586138,13.350468 0.0381409182,12.5715989 L2.63740913,1.4166045 C2.81913619,0.635014927 3.59868541,5.84117892e-05 4.37864271,5.84117892e-05" id="Path" fill="#E21836" fill-rule="evenodd"></path>
                    <path d="M9.49491226,5.84117892e-05 L15.9124891,5.84117892e-05 C16.6913581,5.84117892e-05 16.3401461,0.635014927 16.1569228,1.4166045 L13.5591509,12.5715989 C13.3768797,13.350468 13.4337374,13.9859686 12.653236,13.9859686 L6.23565928,13.9859686 C5.45515788,13.9859686 4.97213933,13.350468 5.15549869,12.5715989 L7.75313459,1.4166045 C7.9375821,0.635014927 8.71549906,5.84117892e-05 9.49491226,5.84117892e-05" id="Path" fill="#00447C" fill-rule="evenodd"></path>
                    <path d="M15.6579351,5.84117892e-05 L21.2385608,5.84117892e-05 C22.0186542,5.84117892e-05 22.503169,0.635014927 22.3199456,1.4166045 L19.7221737,12.5715989 C19.5388144,13.350468 18.7583129,13.9859686 17.9783557,13.9859686 L12.4003144,13.9859686 C11.619813,13.9859686 11.1357063,13.350468 11.3185216,12.5715989 L13.9167015,1.4166045 C14.0984287,0.635014927 14.8774337,5.84117892e-05 15.6579351,5.84117892e-05" id="Path" fill="#007B84" fill-rule="evenodd"></path>
                    <path d="M5.83610458,3.57491255 C5.26222253,3.58076155 5.09273756,3.57491255 5.03860031,3.56212637 C5.01778874,3.66101526 4.63053054,5.44740858 4.62944234,5.44890482 C4.54606009,5.81031859 4.48539376,6.06794659 4.27931853,6.23430303 C4.16233854,6.33101556 4.0257712,6.37767152 3.86744014,6.37767152 C3.61294065,6.37767152 3.46467531,6.25130594 3.43978305,6.01163299 L3.43502225,5.92933893 C3.43502225,5.92933893 3.51255549,5.44523219 3.51255549,5.44251173 C3.51255549,5.44251173 3.91899295,3.8145855 3.99176539,3.59939674 C3.99557404,3.58715465 3.99666222,3.58076155 3.99761438,3.57491255 C3.20650319,3.58184973 3.06626322,3.57491255 3.05660557,3.56212637 C3.05130066,3.57967336 3.03171332,3.68060261 3.03171332,3.68060261 L2.61670639,5.51542018 L2.5810683,5.67103079 L2.51210452,6.18002976 C2.51210452,6.33101556 2.54175758,6.45425261 2.60079167,6.55844643 C2.78986398,6.88884691 3.32919616,6.93835936 3.6342963,6.93835936 C4.02740348,6.93835936 4.39616249,6.85484109 4.64535706,6.70235904 C5.07791099,6.44677136 5.19108236,6.04727108 5.29201159,5.69225042 L5.33880358,5.51011528 C5.33880358,5.51011528 5.75748316,3.81934633 5.82862328,3.59939674 C5.83134379,3.58715465 5.83243194,3.58076155 5.83610458,3.57491255 Z M7.26063524,4.93887205 C7.15970596,4.93887205 6.97525846,4.96335621 6.80958215,5.04456212 C6.74945989,5.07543938 6.69260218,5.11107748 6.63261589,5.14657955 L6.68675315,4.95111413 L6.6571001,4.9181965 C6.30575203,4.98933667 6.22713061,4.99885829 5.90257916,5.04456212 L5.87537449,5.06265318 C5.83769607,5.37509862 5.80423432,5.61001074 5.66453847,6.2241557 C5.61135339,6.45049838 5.55612794,6.67901745 5.50076647,6.90481601 L5.51572901,6.93351693 C5.84830588,6.91596994 5.94923512,6.91596994 6.2382845,6.92073073 L6.26168051,6.89529439 C6.2984068,6.70717425 6.30316759,6.66310273 6.38450951,6.28210161 C6.42273205,6.10146272 6.50244166,5.70454688 6.54175239,5.56321876 C6.61398071,5.52975701 6.6852569,5.49683938 6.75326851,5.49683938 C6.91527222,5.49683938 6.89554884,5.63816754 6.88929176,5.69448119 C6.88235459,5.78901732 6.82332048,6.09779013 6.76279017,6.36289942 L6.72239124,6.53401665 C6.69423444,6.66038227 6.66335714,6.78321123 6.63520034,6.90848865 L6.64744242,6.93351693 C6.97525846,6.91596994 7.07523556,6.91596994 7.35517138,6.92073073 L7.38808901,6.89529439 C7.43868965,6.60148418 7.45351618,6.52286276 7.54329153,6.09506962 L7.58845124,5.89851605 C7.67618626,5.51384229 7.72025778,5.31878498 7.65387844,5.15990983 C7.58369045,4.98185538 7.41529368,4.93887205 7.26063524,4.93887205 Z M8.8519984,5.34162326 C8.67775261,5.37508501 8.56662161,5.39739279 8.45617076,5.41181126 C8.34667203,5.42935829 8.23989377,5.44527301 8.071497,5.46866897 L8.05816672,5.48077504 L8.04592464,5.49043272 C8.02837766,5.61584616 8.01613553,5.72425665 7.99287558,5.85171046 C7.97315221,5.98351696 7.94281902,6.13327855 7.89344259,6.34846734 C7.85522006,6.51319147 7.83549668,6.57059331 7.81373294,6.62853922 C7.79251331,6.68648509 7.76911734,6.74279874 7.72613398,6.90480241 L7.73619971,6.91976499 L7.74463314,6.93350332 C7.90201204,6.92602203 8.00498164,6.92071712 8.11080773,6.91976499 C8.2164978,6.91595634 8.32599648,6.91976499 8.49548144,6.92071712 L8.51030801,6.90861106 L8.52622273,6.89528079 C8.55070689,6.74919184 8.55437953,6.70988111 8.56934207,6.63860492 C8.5841686,6.56215984 8.609741,6.4563338 8.6724477,6.17367747 C8.70210079,6.0409188 8.73515444,5.90856818 8.76589569,5.773089 C8.79786119,5.63815394 8.83132285,5.50525924 8.86315229,5.37250057 L8.8583915,5.35644983 L8.8519984,5.34162326 Z M8.85571181,4.79859126 C8.69738078,4.70514332 8.41948529,4.73479637 8.23245329,4.86388245 C8.04596546,4.99038404 8.02474584,5.16993474 8.18253279,5.2646069 C8.33814336,5.35547044 8.61712705,5.32840184 8.80252669,5.19822756 C8.98860655,5.06900551 9.0118665,4.89108708 8.85571181,4.79859126 Z M9.81324741,6.96278914 C10.1335822,6.96278914 10.4619423,6.87451004 10.7090966,6.61252926 C10.8992571,6.40006098 10.9864479,6.08394294 11.0166451,5.95376871 C11.11499,5.52230298 11.0384088,5.32085251 10.9422404,5.19815958 C10.7961514,5.01112758 10.5379794,4.95114134 10.2701496,4.95114134 C10.109098,4.95114134 9.72551248,4.96705606 9.42585332,5.24331929 C9.21066449,5.44259332 9.1112315,5.71300756 9.05124526,5.97226783 C8.99071495,6.23642499 8.92107099,6.71196225 9.35838575,6.88892851 C9.49332081,6.94687442 9.6878341,6.96278914 9.81324741,6.96278914 Z M9.78821917,5.99199121 C9.86207985,5.66526341 9.94927071,5.39104051 10.1718047,5.39104051 C10.3461865,5.39104051 10.3588367,5.59507541 10.2813035,5.92289141 C10.2674291,5.99566384 10.2037702,6.26621411 10.1176675,6.38142579 C10.0575452,6.46644031 9.9864051,6.51799313 9.90778364,6.51799313 C9.88438762,6.51799313 9.74523585,6.51799313 9.74305946,6.31137382 C9.74197131,6.20935639 9.76278284,6.10516257 9.78821917,5.99199121 Z M11.817414,6.92077155 L11.8424422,6.89533521 C11.8779443,6.70721507 11.8837933,6.66300749 11.9624148,6.28214243 C12.0017255,6.10150354 12.0830673,5.7045877 12.12129,5.56325954 C12.1936543,5.52966181 12.2637063,5.49674418 12.3338942,5.49674418 C12.4948097,5.49674418 12.4752224,5.63807234 12.4688294,5.69438594 C12.4629802,5.78905814 12.4039463,6.09769488 12.3423276,6.36280417 L12.3041052,6.53392145 C12.2748602,6.66042304 12.2430307,6.78311602 12.2148739,6.90852947 L12.227116,6.93355775 C12.5560202,6.91601072 12.6521886,6.91601072 12.9337568,6.92077155 L12.9677626,6.89533521 C13.017139,6.60138898 13.0304693,6.52276752 13.1229651,6.09511044 L13.1670367,5.89842085 C13.2551797,5.51374709 13.2997952,5.31882579 13.2345041,5.15995064 C13.1622758,4.98189619 12.9927908,4.93891287 12.8403088,4.93891287 C12.7392435,4.93891287 12.5538438,4.96326101 12.3891197,5.04460294 C12.3302217,5.0754802 12.2711875,5.11098228 12.2132416,5.14662037 L12.2637063,4.95115495 L12.2366376,4.9181013 C11.8854257,4.98937749 11.8051719,4.99889911 11.4810285,5.04460294 L11.4561362,5.062694 C11.4168255,5.37513939 11.38486,5.60991554 11.2451642,6.22419652 C11.1919791,6.4505392 11.1367537,6.67905823 11.0815282,6.90485683 L11.0963548,6.93355775 C11.4294757,6.91601072 11.5289087,6.91601072 11.817414,6.92077155 Z M14.2339349,6.93348972 C14.2546105,6.83256048 14.3774395,6.23433024 14.3785276,6.23433024 C14.3785276,6.23433024 14.4831295,5.79538321 14.4895227,5.77946849 C14.4895227,5.77946849 14.5224403,5.73376471 14.5553579,5.7156736 L14.6037821,5.7156736 C15.0606843,5.7156736 15.5766204,5.7156736 15.9810175,5.41819075 C16.2561926,5.21415589 16.4443127,4.91286438 16.528239,4.54668983 C16.5500028,4.45691448 16.5660535,4.35013623 16.5660535,4.24335799 C16.5660535,4.10311802 16.5378967,3.9643743 16.4565548,3.85596378 C16.2503436,3.56745848 15.8396894,3.56215357 15.3656484,3.55997719 C15.3641521,3.55997719 15.1319604,3.56215357 15.1319604,3.56215357 C14.5251607,3.56963485 14.2818151,3.56745848 14.181838,3.55521639 C14.1734046,3.59942393 14.1574899,3.67804538 14.1574899,3.67804538 C14.1574899,3.67804538 13.9401247,4.68543355 13.9401247,4.68706582 C13.9401247,4.68706582 13.4199719,6.82888784 13.3954876,6.92981708 C13.9252982,6.92342403 14.1425274,6.92342403 14.2339349,6.93348972 Z M14.6366998,5.14396789 C14.6366998,5.14396789 14.8678033,4.13862009 14.8667152,4.14242874 L14.8741963,4.09087593 L14.8774609,4.05156521 L14.9698207,4.06108683 C14.9698207,4.06108683 15.4464461,4.10202983 15.4576001,4.10311802 C15.6457202,4.17589046 15.7232534,4.36346651 15.6691162,4.60830834 C15.6197398,4.83206658 15.474603,5.02018676 15.2881151,5.11105026 C15.1345449,5.18803941 14.9464247,5.19443251 14.7525916,5.19443251 L14.6271782,5.19443251 L14.6366998,5.14396789 Z M16.0756082,6.01061282 C16.0145337,6.27096129 15.9443456,6.74649859 16.379484,6.91598355 C16.5182277,6.97501761 16.6425529,6.9925646 16.7689186,6.98617154 C16.9023574,6.97896229 17.0260025,6.91203888 17.1405341,6.81573441 C17.1301964,6.85531717 17.1198586,6.89489994 17.1095208,6.93461873 L17.1292441,6.96005507 C17.4422336,6.94686081 17.5393543,6.94686081 17.8784602,6.94944526 L17.9092015,6.92604924 C17.9587139,6.63495949 18.0053699,6.35230321 18.1340479,5.79542403 C18.1967545,5.52868242 18.2593253,5.26452531 18.3236643,4.99887189 L18.3135986,4.9696269 C17.9634747,5.03450999 17.8698908,5.04838438 17.5330971,5.09612854 L17.5075248,5.11694006 C17.5041242,5.14400871 17.5005876,5.16998913 17.497323,5.19596958 C17.4449541,5.11136312 17.3690532,5.0391348 17.2519371,4.99411111 C17.1021755,4.93521302 16.7504194,5.01111398 16.4480397,5.28642502 C16.2355715,5.48297864 16.1335541,5.75230464 16.0756082,6.01061282 Z M16.8109497,6.02652754 C16.8858986,5.70564868 16.9720013,5.43414629 17.1950795,5.43414629 C17.3361355,5.43414629 17.4104042,5.56432052 17.3953056,5.78631047 C17.3833356,5.84167194 17.3704134,5.90002591 17.3550427,5.96599719 C17.332735,6.06134948 17.3085228,6.15588562 17.2849908,6.25055782 C17.2610506,6.31530489 17.2331659,6.37637932 17.2025607,6.41705028 C17.1451589,6.49839216 17.0085916,6.54885678 16.9299701,6.54885678 C16.9076623,6.54885678 16.7700068,6.54885678 16.765246,6.34591011 C16.7641577,6.24484486 16.7849693,6.14078706 16.8109497,6.02652754 Z M20.650954,4.96702885 L20.6238855,4.93615159 C20.2774342,5.00633958 20.2147274,5.01749347 19.8964331,5.06047684 L19.873037,5.08387281 C19.871949,5.08768146 19.8709967,5.09353049 19.8693645,5.09883539 L19.8682762,5.09353049 C19.6313238,5.64020791 19.6382609,5.52227576 19.44538,5.95265331 C19.4442917,5.93306595 19.4442917,5.92082387 19.4432037,5.9000123 L19.3949153,4.96702885 L19.3645821,4.93615159 C19.0016722,5.00633958 18.9931027,5.01749347 18.6579414,5.06047684 L18.631825,5.08387281 C18.6281523,5.09502674 18.6281523,5.10726882 18.625976,5.12059909 L18.6281523,5.12535992 C18.6700475,5.33946052 18.6599817,5.29171637 18.702013,5.6295981 C18.7216003,5.79541043 18.7477168,5.96217493 18.7673041,6.12594693 C18.8003578,6.40003376 18.818857,6.53496882 18.8592558,6.95324031 C18.6329131,7.32676013 18.5793199,7.46808829 18.3614107,7.79590433 L18.362907,7.79916887 L18.2094727,8.04183432 C18.1919258,8.06740672 18.1760111,8.08495371 18.1537032,8.09243501 C18.1292191,8.10454107 18.0973896,8.10671741 18.053182,8.10671741 L17.9681675,8.10671741 L17.841802,8.52702926 L18.275308,8.53451056 C18.5298074,8.53342236 18.6897708,8.41440202 18.7758736,8.25443868 L19.0484641,7.78733484 L19.0441114,7.78733484 L19.0728123,7.75441721 C19.2561716,7.35967776 20.650954,4.96702885 20.650954,4.96702885 Z M16.0755945,10.4871922 L15.891691,10.4871922 L16.5723514,8.23587148 L16.79815,8.23587148 L16.8698342,8.00395186 L16.8767714,8.26185194 C16.8683379,8.42127116 16.9937514,8.56259933 17.3231997,8.53920336 L17.7042008,8.53920336 L17.8353272,8.10569725 L17.6919587,8.10569725 C17.6095287,8.10569725 17.5713061,8.08488568 17.576067,8.04027009 L17.5691297,7.77788121 L16.8635772,7.77788121 L16.8635772,7.77924144 C16.6354662,7.78400228 15.9542618,7.80114121 15.8163342,7.83786749 C15.6494337,7.88085082 15.4735556,8.00735246 15.4735556,8.00735246 L15.5426554,7.77516075 L14.8826706,7.77516075 L14.7451511,8.23587148 L14.0553773,10.5216061 L13.9215304,10.5216061 L13.7902679,10.9519837 L15.1047966,10.9519837 L15.0607251,11.0954882 L15.7084677,11.0954882 L15.7514511,10.9519837 L15.9331782,10.9519837 L16.0755945,10.4871922 Z M15.5362624,8.69331768 C15.4305723,8.72256267 15.2338827,8.81124982 15.2338827,8.81124982 L15.4088085,8.23587148 L15.9331782,8.23587148 L15.8066765,8.65509514 C15.8066765,8.65509514 15.6446728,8.66461676 15.5362624,8.69331768 Z M15.5463281,9.51530615 C15.5463281,9.51530615 15.3816039,9.5359817 15.2731933,9.56046586 C15.1664151,9.59283946 14.9661889,9.69485685 14.9661889,9.69485685 L15.1468278,9.09608254 L15.6739179,9.09608254 L15.5463281,9.51530615 Z M15.2525179,10.4924971 L14.726516,10.4924971 L14.878998,9.98717081 L15.4033676,9.98717081 L15.2525179,10.4924971 Z M16.5192479,9.09608254 L17.2774415,9.09608254 L17.1684868,9.44892681 L16.4002276,9.44892681 L16.2848798,9.83468876 L16.9571067,9.83468876 L16.4481078,10.5513952 C16.4124697,10.6040363 16.3805042,10.6226714 16.3450022,10.6374979 C16.3093641,10.655589 16.2625721,10.6768086 16.2084348,10.6768086 L16.0219469,10.6768086 L15.893813,11.0992969 L16.3815923,11.0992969 C16.6351397,11.0992969 16.7849013,10.9839491 16.8954882,10.8325552 L17.2445239,10.3548416 L17.3194727,10.8399006 C17.3353874,10.930764 17.4006786,10.9839491 17.4448861,11.0046247 C17.4937185,11.0291088 17.5441831,11.0711401 17.6154593,11.0773971 C17.6919043,11.0806616 17.7471298,11.0832461 17.783856,11.0832461 L18.023529,11.0832461 L18.1674416,10.6104293 L18.0729055,10.6104293 C18.0186321,10.6104293 17.9251842,10.6013157 17.9092695,10.5843128 C17.8933548,10.5636373 17.8933548,10.5318078 17.8847853,10.4833836 L17.8087483,9.99723646 L17.497391,9.99723646 L17.6339585,9.83468876 L18.4007214,9.83468876 L18.5186536,9.44892681 L17.8087483,9.44892681 L17.9193352,9.09608254 L18.6270641,9.09608254 L18.7583266,8.66094416 L16.648334,8.66094416 L16.5192479,9.09608254 Z M10.1155184,10.5907468 L10.2924846,10.0020382 L11.0198009,10.0020382 L11.1526956,9.56417936 L10.4246992,9.56417936 L10.5358302,9.20181342 L11.2472317,9.20181342 L11.3790383,8.77782894 L9.59903805,8.77782894 L9.46995201,9.20181342 L9.8743491,9.20181342 L9.76648269,9.56417936 L9.36099736,9.56417936 L9.22660646,10.0095194 L9.63086749,10.0095194 L9.39500319,10.7883885 C9.36317375,10.8914942 9.40996578,10.9308048 9.43961883,10.978685 C9.46995201,11.025341 9.5006933,11.0562182 9.5697931,11.0737652 C9.64106929,11.08968 9.68990164,11.0992016 9.75628098,11.0992016 L10.5762291,11.0992016 L10.7223181,10.6141427 L10.3588639,10.6640633 C10.288676,10.6640633 10.0942987,10.6556299 10.1155184,10.5907468 Z M10.1989414,7.77250832 L10.0146299,8.10562926 C9.97518314,8.17840166 9.93968106,8.22356141 9.90771565,8.24437294 C9.87955885,8.26191997 9.82378932,8.2692652 9.74299148,8.2692652 L9.64682302,8.2692652 L9.51828106,8.69542603 L9.83766367,8.69542603 C9.99123387,8.69542603 10.109166,8.63911243 10.1654797,8.61095559 C10.22601,8.57858207 10.2419247,8.59708124 10.2887167,8.55192152 L10.3965832,8.45847354 L11.3939056,8.45847354 L11.5262563,8.01476572 L10.7962194,8.01476572 L10.9236733,7.77250832 L10.1989414,7.77250832 Z M11.6713114,10.5993026 C11.6543085,10.5748184 11.6665506,10.5316991 11.692531,10.4419237 L11.9651216,9.53968155 L12.9348313,9.53968155 C13.0761595,9.53764123 13.1781769,9.53600891 13.2445562,9.53124812 C13.3158324,9.52376679 13.3933657,9.49833045 13.4778361,9.45262666 C13.5650271,9.40474649 13.6096426,9.35428182 13.6473211,9.29633591 C13.6893522,9.23852606 13.7568198,9.11202442 13.8147657,8.91696715 L14.1574083,7.77518796 L13.1511083,7.78103699 C13.1511083,7.78103699 12.8412474,7.82674077 12.7048161,7.87720539 C12.5671606,7.93351904 12.3704709,8.09076192 12.3704709,8.09076192 L12.4613345,7.77777241 L11.8397081,7.77777241 L10.9694315,10.6640497 C10.9385542,10.7761328 10.9178787,10.8574747 10.9131179,10.906307 C10.9114856,10.9589481 10.9794972,11.011045 11.0235688,11.0503557 C11.0756657,11.0896664 11.1526547,11.0832733 11.2265154,11.0896664 C11.3041847,11.0955155 11.4146356,11.099188 11.5671175,11.099188 L12.0448312,11.099188 L12.1914642,10.6040634 L11.7638072,10.6444623 C11.7181034,10.6444623 11.6850498,10.6199781 11.6713114,10.5993026 Z M12.1409997,8.93029734 L13.1595418,8.93029734 L13.0947947,9.13324405 C13.0856812,9.13800484 13.0639174,9.12317831 12.9602677,9.13542044 L12.078293,9.13542044 L12.1409997,8.93029734 Z M12.3450345,8.24963707 L13.372146,8.24963707 L13.2982854,8.49407081 C13.2982854,8.49407081 12.8141787,8.48931002 12.7366455,8.50359243 C12.3954991,8.56262654 12.1962251,8.7448977 12.1962251,8.7448977 L12.3450345,8.24963707 Z M13.1175922,9.81285699 C13.1091587,9.84319018 13.0958285,9.86168934 13.0771933,9.87556369 C13.0565177,9.88889396 13.023056,9.89365475 12.9731355,9.89365475 L12.8279987,9.89365475 L12.8365681,9.64650059 L12.232897,9.64650059 L12.2084128,10.8547951 C12.2074606,10.9419859 12.2158941,10.9924506 12.279689,11.0328495 C12.3434839,11.0833141 12.5400375,11.0897072 12.8046026,11.0897072 L13.1828833,11.0897072 L13.3194507,10.6374299 L12.9901383,10.655521 L12.8806397,10.6619141 C12.8656771,10.655521 12.8513947,10.649672 12.83548,10.6337573 C12.8216056,10.6200189 12.7982096,10.6284524 12.8020182,10.5412615 L12.8046026,10.2315366 L13.1499658,10.2172542 C13.3364536,10.2172542 13.4161633,10.1565877 13.4841748,10.0987778 C13.5490579,10.0434164 13.5702775,9.97975755 13.5947618,9.89365475 L13.6527077,9.61943194 L13.1781225,9.61943194 L13.1175922,9.81285699 Z" id="Shape" fill="#FEFEFE" fill-rule="nonzero"></path>
                </g>
            </g>
        </g>
    </g>
</svg>