<?xml version="1.0" encoding="UTF-8"?>
<svg width="28px" height="17px" viewBox="0 0 28 17" version="1.1" xmlns="http://www.w3.org/2000/svg" xmlns:xlink="http://www.w3.org/1999/xlink">
    <!-- Generator: Sketch 52.6 (67491) - http://www.bohemiancoding.com/sketch -->
    <title>VisaCardMiniLogo</title>
    <desc>Created with Sketch.</desc>
    <defs>
        <rect id="path-1" x="0" y="0" width="28" height="17" rx="2"></rect>
    </defs>
    <g id="VisaCardMiniLogo" stroke="none" stroke-width="1" fill="none" fill-rule="evenodd">
        <g>
            <mask id="mask-2" fill="white">
                <use xlink:href="#path-1"></use>
            </mask>
            <use id="Base" fill="#FFFFFF" xlink:href="#path-1"></use>
            <g id="VISA-2" mask="url(#mask-2)">
                <g transform="translate(3.500000, 5.000000)">
                    <polyline id="Fill-1" fill="#005C9C" points="9.088625 6.796825 7.38535 6.796825 8.449875 0.254625 10.153325 0.254625 9.088625 6.796825"></polyline>
                    <path d="M5.95245,0.254625 L4.32845,4.754225 L4.136475,3.78525 L4.13665,3.7856 L3.56335,0.84385 C3.56335,0.84385 3.494225,0.254625 2.755375,0.254625 L0.07105,0.254625 L0.039725,0.365225 C0.039725,0.365225 0.860825,0.536025 1.821225,1.11335 L3.301025,6.796825 L5.0757,6.796825 L7.785575,0.254625 L5.95245,0.254625" id="Fill-2" fill="#005C9C"></path>
                    <path d="M17.475325,4.482625 L18.37045,2.0342 L18.873925,4.482625 L17.475325,4.482625 Z M19.349575,6.796825 L20.91355,6.796825 L19.54995,0.254625 L18.180575,0.254625 C17.548125,0.254625 17.3943,0.742175 17.3943,0.742175 L14.854175,6.796825 L16.629375,6.796825 L16.984625,5.825225 L19.1499,5.825225 L19.349575,6.796825 Z" id="Fill-3" fill="#005C9C"></path>
                    <path d="M14.98735,1.827875 L15.23025,0.4228 C15.23025,0.4228 14.4802,0.13755 13.6983,0.13755 C12.85305,0.13755 10.845975,0.50715 10.845975,2.30335 C10.845975,3.993675 13.20165,4.014675 13.20165,4.9021 C13.20165,5.789525 11.0887,5.630975 10.3915,5.07115 L10.1381,6.539925 C10.1381,6.539925 10.898475,6.909525 12.060825,6.909525 C13.223,6.909525 14.976675,6.30735 14.976675,4.6697 C14.976675,2.9687 12.59965,2.810325 12.59965,2.070775 C12.59965,1.331225 14.258475,1.42625 14.98735,1.827875" id="Fill-4" fill="#005C9C"></path>
                    <path d="M4.13665,3.7856 L3.56335,0.84385 C3.56335,0.84385 3.494225,0.254625 2.755375,0.254625 L0.07105,0.254625 L0.039725,0.365225 C0.039725,0.365225 1.33,0.6328 2.567775,1.6345 C3.750775,2.5921 4.13665,3.7856 4.13665,3.7856" id="Fill-5" fill="#EE9F3F"></path>
                </g>
            </g>
        </g>
    </g>
</svg>